<?xml version="1.0" encoding="UTF-8"?>
<svg version="1.1" xmlns="http://www.w3.org/2000/svg" width="64" height="64">
<path d="M0 0 C0.495 1.98 0.495 1.98 1 4 C-5 6 -5 6 -7.12109375 6.58984375 C-14.75679335 8.82629649 -20.65242186 12.32400807 -24.9375 19.1875 C-28.18175426 25.73099588 -28.96211472 32.64378052 -26.9375 39.6875 C-23.99123045 47.07299183 -19.67896461 52.54094959 -12.48046875 56.0859375 C-4.68583489 58.95829076 1.96421705 58.41638229 9.55859375 55.21875 C16.90496401 51.55144197 20.09406344 46.43481128 23 39 C23.85498826 35.9964661 24.45330351 33.08138021 25 30 C26.9375 29.4375 26.9375 29.4375 29 29 C30.60326042 30.60326042 30.24749549 32.28300409 30.3125 34.5 C30.20064217 43.22491068 25.95008817 50.74967803 20 57 C11.01540699 64.0798593 1.07452848 65.12861437 -10 64 C-18.57494559 62.04761912 -25.01875412 57.30210128 -29.8125 50 C-35.06671285 41.39241581 -35.52032808 30.67735002 -33.3125 20.98046875 C-30.02962659 12.07567463 -24.3436738 6.32384715 -16 2 C-10.71838507 -0.41117203 -5.69354133 -0.20253704 0 0 Z " fill="#FFFFFF" transform="translate(34,0)"/>
<path d="M0 0 C1.05755493 0.16701416 1.05755493 0.16701416 2.13647461 0.33740234 C2.54931641 2.38085938 2.54931641 2.38085938 2.13647461 5.33740234 C0.22366687 8.04889857 -2.11492343 10.31283951 -4.46899414 12.64208984 C-5.14521317 13.32546417 -5.82143219 14.0088385 -6.5181427 14.71292114 C-7.95034811 16.15290652 -9.38898358 17.58652091 -10.83349609 19.01416016 C-13.04480829 21.20623932 -15.22522673 23.42606205 -17.40454102 25.64990234 C-18.79925357 27.04490522 -20.19568223 28.43819489 -21.59399414 29.82958984 C-22.24627487 30.49715302 -22.8985556 31.16471619 -23.57060242 31.85250854 C-28.17301005 36.33853054 -28.17301005 36.33853054 -31.70263672 36.33276367 C-35.60109333 34.53703352 -38.02638946 31.47759598 -40.86352539 28.33740234 C-41.38946289 27.80244141 -41.91540039 27.26748047 -42.45727539 26.71630859 C-43.86352539 25.21240234 -43.86352539 25.21240234 -45.86352539 22.33740234 C-45.67602539 19.46240234 -45.67602539 19.46240234 -44.86352539 17.33740234 C-40.75905147 17.85516855 -38.90653016 19.98367678 -36.11352539 22.89990234 C-35.31430664 23.72619141 -34.51508789 24.55248047 -33.69165039 25.40380859 C-33.08836914 26.04189453 -32.48508789 26.67998047 -31.86352539 27.33740234 C-27.77618517 25.73207323 -25.1430507 22.78741328 -22.17993164 19.67333984 C-21.07684851 18.5401062 -19.97331925 17.40730666 -18.86938477 16.27490234 C-17.1415662 14.49122068 -15.41794336 12.70394603 -13.70214844 10.90869141 C-12.03919287 9.1732267 -10.36096376 7.45377539 -8.67993164 5.73583984 C-8.1714418 5.19526947 -7.66295197 4.6546991 -7.13905334 4.0977478 C-4.76406768 1.68945476 -3.42045377 0.40302388 0 0 Z " fill="#FFFFFF" transform="translate(60.863525390625,7.66259765625)"/>
</svg>
