<?xml version="1.0" encoding="UTF-8"?>
<svg version="1.1" xmlns="http://www.w3.org/2000/svg" width="64" height="64">
<path d="M0 0 C2.64 0 5.28 0 8 0 C8 2.97 8 5.94 8 9 C9.546875 8.87625 9.546875 8.87625 11.125 8.75 C15.6504277 9.04196308 17.52200909 10.16907717 21 13 C23.13586678 16.20380017 23.23132175 17.01939967 23.125 20.6875 C23.10695312 21.49574219 23.08890625 22.30398437 23.0703125 23.13671875 C23.04710937 23.75160156 23.02390625 24.36648437 23 25 C20.36 25 17.72 25 15 25 C14.67 22.69 14.34 20.38 14 18 C12.02 17.67 10.04 17.34 8 17 C8 20.96 8 24.92 8 29 C9.03125 29.0825 10.0625 29.165 11.125 29.25 C15.38440967 30.07440187 17.65462072 31.27701687 21 34 C23.59642134 38.20372979 23.54156842 42.19465477 23 47 C21.59471779 50.59127675 20.43148426 51.72193236 17.1875 53.8125 C13.87353477 55.0471145 11.50302515 55.25021608 8 55 C8 57.97 8 60.94 8 64 C5.36 64 2.72 64 0 64 C0 61.03 0 58.06 0 55 C-1.03125 55.0825 -2.0625 55.165 -3.125 55.25 C-7.6504277 54.95803692 -9.52200909 53.83092283 -13 51 C-15.13586678 47.79619983 -15.23132175 46.98060033 -15.125 43.3125 C-15.10695313 42.50425781 -15.08890625 41.69601563 -15.0703125 40.86328125 C-15.04710937 40.24839844 -15.02390625 39.63351563 -15 39 C-12.36 39 -9.72 39 -7 39 C-6.67 41.31 -6.34 43.62 -6 46 C-4.02 46.33 -2.04 46.66 0 47 C0 43.04 0 39.08 0 35 C-1.03125 34.9175 -2.0625 34.835 -3.125 34.75 C-7.38440967 33.92559813 -9.65462072 32.72298313 -13 30 C-15.59642134 25.79627021 -15.54156842 21.80534523 -15 17 C-13.59471779 13.40872325 -12.43148426 12.27806764 -9.1875 10.1875 C-5.87353477 8.9528855 -3.50302515 8.74978392 0 9 C0 6.03 0 3.06 0 0 Z M-6 19 C-7.07642709 20.88850355 -7.07642709 20.88850355 -7 23 C-5.89661743 24.85353452 -5.89661743 24.85353452 -4 26 C-2.68 26 -1.36 26 0 26 C0 23.03 0 20.06 0 17 C-2.56128588 17 -3.85331506 17.61504198 -6 19 Z M8 38 C8 40.97 8 43.94 8 47 C11.00384054 46.3045656 11.00384054 46.3045656 14 45 C15.23901711 43.12907319 15.23901711 43.12907319 15 41 C13.89661743 39.14646548 13.89661743 39.14646548 12 38 C10.68 38 9.36 38 8 38 Z " fill="#FFFFFF" transform="translate(28,0)"/>
</svg>
