<?xml version="1.0" encoding="UTF-8"?>
<svg version="1.1" xmlns="http://www.w3.org/2000/svg" width="64" height="64">
<path d="M0 0 C6.32491289 0.47735192 6.32491289 0.47735192 8.9375 2.5 C10.82083359 6.93137316 10.77511924 11.55881986 9.3203125 16.140625 C8.61566829 17.79150572 7.81631304 19.40138697 7 21 C8.8253125 20.9071875 8.8253125 20.9071875 10.6875 20.8125 C14.59741696 20.8125 16.87269312 21.51655042 20 24 C23.6396105 29.45941575 21.46510398 36.2909203 20.3984375 42.50390625 C19.17314448 48.42166761 18.18975594 52.46987703 14 57 C11.27135827 58.36432086 9.09019723 58.12967024 6.0390625 58.1328125 C4.84539063 58.13410156 3.65171875 58.13539062 2.421875 58.13671875 C1.16890625 58.13285156 -0.0840625 58.12898438 -1.375 58.125 C-2.62023438 58.12886719 -3.86546875 58.13273437 -5.1484375 58.13671875 C-6.3446875 58.13542969 -7.5409375 58.13414063 -8.7734375 58.1328125 C-9.87091309 58.13168457 -10.96838867 58.13055664 -12.09912109 58.12939453 C-15 58 -15 58 -17.26416016 57.42919922 C-19.09522672 56.77726832 -19.09522672 56.77726832 -21 58 C-23.12039826 58.17431846 -25.24793308 58.26709071 -27.375 58.3125 C-29.08816406 58.36857422 -29.08816406 58.36857422 -30.8359375 58.42578125 C-34.74222173 57.90012078 -35.63204929 57.09892817 -38 54 C-38.50170898 50.85546875 -38.50170898 50.85546875 -38.49609375 47.1875 C-38.49754898 46.53676514 -38.49900421 45.88603027 -38.50050354 45.21557617 C-38.49884833 43.84386707 -38.48732896 42.47213868 -38.46655273 41.10058594 C-38.4375879 39.00635539 -38.44595005 36.91465742 -38.45898438 34.8203125 C-38.45274639 33.48436275 -38.44435497 32.14842097 -38.43359375 30.8125 C-38.42384521 29.60207031 -38.41409668 28.39164063 -38.40405273 27.14453125 C-37.97023165 23.76832845 -37.45334688 22.33053756 -35 20 C-32.3593821 19.64551432 -30.18690781 19.52938399 -27.5625 19.625 C-26.24378906 19.63789063 -24.92507812 19.65078125 -23.56640625 19.6640625 C-20.40139314 19.96219079 -18.63277874 20.31663763 -16 22 C-7.44020341 11.39669107 -7.44020341 11.39669107 0 0 Z M2 6 C1.62230469 6.65484375 1.24460937 7.3096875 0.85546875 7.984375 C-4.14881468 16.2818754 -10.17408889 23.17408889 -17 30 C-17.27800006 33.09548855 -17.23179345 36.20600705 -17.25 39.3125 C-17.270625 40.18068359 -17.29125 41.04886719 -17.3125 41.94335938 C-17.31765625 42.78318359 -17.3228125 43.62300781 -17.328125 44.48828125 C-17.3374707 45.25696533 -17.34681641 46.02564941 -17.35644531 46.81762695 C-16.88838442 49.68337788 -16.09313109 50.98776286 -14 53 C-11.44761863 53.59912311 -11.44761863 53.59912311 -8.5625 53.49609375 C-6.97308594 53.49706055 -6.97308594 53.49706055 -5.3515625 53.49804688 C-4.24554688 53.47806641 -3.13953125 53.45808594 -2 53.4375 C-0.34097656 53.44813477 -0.34097656 53.44813477 1.3515625 53.45898438 C6.9066006 53.72952221 6.9066006 53.72952221 11.78271484 51.63549805 C16.00342094 45.96471784 16.78042451 35.91662806 17 29 C16.03014253 27.14704918 16.03014253 27.14704918 14 26 C10.5776116 25.41781668 10.5776116 25.41781668 6.8125 25.3125 C5.54019531 25.24675781 4.26789062 25.18101563 2.95703125 25.11328125 C1.98121094 25.07589844 1.00539063 25.03851562 0 25 C0.53470582 21.70733786 1.20962508 19.33185069 3.0625 16.5625 C5.05443902 13.28335129 5.37791671 10.87364626 5 7 C4.01 6.67 3.02 6.34 2 6 Z M-33 25 C-33.02886338 29.47915328 -33.04675187 33.95828291 -33.0625 38.4375 C-33.07087891 39.71689453 -33.07925781 40.99628906 -33.08789062 42.31445312 C-33.09111328 43.52939453 -33.09433594 44.74433594 -33.09765625 45.99609375 C-33.10289307 47.12200928 -33.10812988 48.2479248 -33.11352539 49.40795898 C-33.29545448 51.92970871 -33.29545448 51.92970871 -32 53 C-28.7 53 -25.4 53 -22 53 C-22 43.76 -22 34.52 -22 25 C-25.63 25 -29.26 25 -33 25 Z " fill="#FFFFFF" transform="translate(40,3)"/>
</svg>
