<?xml version="1.0" encoding="UTF-8"?>
<svg version="1.1" xmlns="http://www.w3.org/2000/svg" width="253" height="222">
<path d="M0 0 C1.12682693 0.19396866 2.25365387 0.38793732 3.41462708 0.58778381 C7.5009971 1.3172771 11.57649165 2.09334064 15.65234375 2.87890625 C17.1940604 3.17260084 18.73585624 3.46587999 20.27772522 3.7587738 C24.34715192 4.53282127 28.41560166 5.31188348 32.48382568 6.09222412 C60.6386825 11.48843744 88.81602242 16.75646929 117 22 C117 79.75 117 137.5 117 197 C86.866875 202.94 86.866875 202.94 56.125 209 C49.7945752 210.25296875 43.46415039 211.5059375 36.94189453 212.796875 C29.17944336 214.3203125 29.17944336 214.3203125 25.53927612 215.03222656 C23.0098001 215.52876937 20.48108948 216.02828016 17.95309448 216.53222656 C14.11284271 217.29754897 10.2697011 218.04767782 6.42626953 218.796875 C5.30994204 219.0217157 4.19361454 219.2465564 3.04345894 219.47821045 C-5.87732089 221.19593961 -13.97179302 221.6600105 -22.92285156 219.85766602 C-24.19660141 219.60612762 -25.47035126 219.35458923 -26.78269958 219.09542847 C-28.15204108 218.8150823 -29.52134857 218.53457004 -30.890625 218.25390625 C-32.34411275 217.96342579 -33.79777652 217.67382482 -35.25160217 217.38504028 C-39.12205026 216.61390824 -42.99011859 215.8314212 -46.85782242 215.04665756 C-50.85852451 214.23694754 -54.86131408 213.43770602 -58.86401367 212.63793945 C-63.67658642 211.67580026 -68.4889944 210.71288263 -73.30046082 209.745224 C-82.81034534 207.83304801 -92.3246735 205.94762924 -101.84765625 204.1015625 C-102.93829376 203.88996994 -104.02893127 203.67837738 -105.15261841 203.46037292 C-109.18205496 202.67938107 -113.21169747 201.89949359 -117.24206543 201.12332153 C-119.90796616 200.60947294 -122.57318068 200.09219844 -125.23828125 199.57421875 C-126.00874283 199.42695343 -126.77920441 199.27968811 -127.57301331 199.12796021 C-132.77272334 198.11363833 -132.77272334 198.11363833 -135 197 C-135 139.58 -135 82.16 -135 23 C-106.22886794 17.24577359 -106.22886794 17.24577359 -93.80859375 14.87890625 C-92.39639324 14.60904067 -90.98420805 14.33909488 -89.57203674 14.06907654 C-86.65451471 13.5114517 -83.73686115 12.95452264 -80.8190918 12.39819336 C-77.91042355 11.84358299 -75.00189145 11.28826846 -72.09350586 10.73217773 C-71.37877798 10.59552515 -70.6640501 10.45887257 -69.9276638 10.31807899 C-68.48445027 10.04211865 -67.04124476 9.76611637 -65.59804726 9.49007225 C-62.01369794 8.80492626 -58.42890472 8.12227152 -54.84310913 7.44473267 C-48.32248814 6.21177091 -41.80512804 4.96822945 -35.29838848 3.66367817 C-32.38658125 3.08144886 -29.47271173 2.50998849 -26.55851936 1.93983269 C-25.19080824 1.66936158 -23.82406786 1.39392402 -22.45846367 1.1130085 C-14.6302959 -0.49550489 -7.87994988 -1.43474386 0 0 Z " fill="#8F601F" transform="translate(136,1)"/>
<path d="M0 0 C0 57.75 0 115.5 0 175 C-28.895625 180.6925 -28.895625 180.6925 -58.375 186.5 C-64.44438965 187.70076172 -70.5137793 188.90152344 -76.76708984 190.13867188 C-84.2121582 191.59863281 -84.2121582 191.59863281 -87.70401001 192.28088379 C-90.12925324 192.75658307 -92.5537708 193.23599155 -94.97769165 193.71838379 C-98.66102505 194.45065354 -102.34652919 195.17091773 -106.03271484 195.88867188 C-107.10220053 196.10414421 -108.17168621 196.31961655 -109.27358055 196.54161835 C-110.27814608 196.73473854 -111.2827116 196.92785873 -112.31771851 197.12683105 C-113.17867315 197.29644096 -114.0396278 197.46605087 -114.92667198 197.64080048 C-119.25661913 198.14686912 -123.64057942 198 -128 198 C-128 140.91 -128 83.82 -128 25 C-130.97 24.67 -133.94 24.34 -137 24 C-139.67201263 23.5778031 -142.33082045 23.13893187 -144.9921875 22.66015625 C-146.0611174 22.46962929 -146.0611174 22.46962929 -147.15164185 22.2752533 C-148.63914703 22.00877641 -150.12635986 21.74066261 -151.61328125 21.47094727 C-153.88938355 21.05990245 -156.16723917 20.65972337 -158.4453125 20.25976562 C-159.8985567 19.99805686 -161.35168618 19.73571012 -162.8046875 19.47265625 C-163.82186356 19.29598167 -163.82186356 19.29598167 -164.85958862 19.11573792 C-168.17694383 18.50236821 -170.14281898 17.90478735 -173 16 C-166.46975634 13.58239481 -160.05361174 12.1544896 -153.1875 11.0625 C-144.90256741 9.68612571 -136.66087998 8.1929253 -128.43823242 6.48266602 C-122.60841199 5.28246565 -116.75446166 4.23858595 -110.89189148 3.21324158 C-103.03966533 1.8379707 -95.20012022 0.39605641 -87.36108398 -1.05224609 C-84.9355114 -1.50036739 -82.50976347 -1.94752936 -80.08398438 -2.39453125 C-78.89018661 -2.61508179 -78.89018661 -2.61508179 -77.67227173 -2.84008789 C-76.08260727 -3.13291495 -74.49258111 -3.42378562 -72.90219116 -3.71264648 C-69.15864202 -4.39613626 -65.42970066 -5.11135654 -61.71142578 -5.921875 C-60.67738365 -6.13886047 -60.67738365 -6.13886047 -59.62245178 -6.36022949 C-57.78023687 -6.74929021 -55.94179151 -7.15608649 -54.10375977 -7.56445312 C-36.84743954 -9.39592884 -15.28989099 -2.89268208 0 0 Z " fill="#F6AE36" transform="translate(253,23)"/>
<path d="M0 0 C1.39775097 0.24168056 2.79590594 0.48102996 4.19433594 0.71875 C8.28799105 1.42634769 12.37108995 2.18215781 16.45263672 2.95629883 C19.02023918 3.44132322 21.59003816 3.91327617 24.16015625 4.38476562 C25.79441923 4.6919198 27.42853948 4.9998346 29.0625 5.30859375 C29.83013672 5.44825058 30.59777344 5.58790741 31.38867188 5.73179626 C36.77102243 6.77102243 36.77102243 6.77102243 39 9 C32.50909254 10.47134385 26.00437529 11.80988267 19.46875 13.06640625 C18.45954498 13.26124603 17.45033997 13.45608582 16.41055298 13.65682983 C13.10735118 14.29370638 9.80371054 14.92826816 6.5 15.5625 C5.36560486 15.78076447 4.23120972 15.99902893 3.06243896 16.22390747 C-16.26585319 19.94067864 -35.61458063 23.53852789 -54.98242188 27.04321289 C-56.9023597 27.39200206 -58.82228209 27.74087621 -60.7421875 28.08984375 C-61.64841858 28.25321732 -62.55464966 28.41659088 -63.48834229 28.58491516 C-68.6400581 29.5250857 -73.72397531 30.61346372 -78.8203125 31.81640625 C-84.24103751 33.00231594 -88.5909221 33.14364798 -94 32 C-94.75539062 31.86110352 -95.51078125 31.72220703 -96.2890625 31.57910156 C-98.6998368 31.12459502 -101.09930093 30.62988339 -103.5 30.125 C-110.87873745 28.60056491 -118.26229176 27.20406263 -125.70703125 26.03955078 C-129.10711894 25.47649492 -131.07933301 24.94711133 -134 23 C-125.06513431 20.63202073 -116.0824036 18.80118703 -106.9921875 17.14453125 C-105.55310377 16.87917828 -104.11408971 16.61344719 -102.67514038 16.34736633 C-98.86090256 15.64295372 -95.0458784 14.94290301 -91.23060608 14.24411774 C-84.9102937 13.08604681 -78.59091648 11.92287772 -72.27174377 10.75860596 C-70.70006759 10.469035 -69.12836144 10.17962661 -67.55662537 9.89038086 C-57.82476152 8.09833836 -48.10443814 6.26025337 -38.3984375 4.33203125 C-36.92339249 4.04109337 -36.92339249 4.04109337 -35.41854858 3.74427795 C-31.02920367 2.87819197 -26.64309459 2.00008825 -22.26123047 1.09692383 C-14.58887658 -0.44883263 -7.76737891 -1.51084828 0 0 Z " fill="#EAA13C" transform="translate(136,1)"/>
<path d="M0 0 C9.40776184 1.17597023 18.70313903 3.14062781 28 5 C28 30.41 28 55.82 28 82 C17 81 17 81 0 77 C0 51.59 0 26.18 0 0 Z " fill="#372522" transform="translate(49,34)"/>
<path d="M0 0 C6.33974997 0.633975 12.33635619 1.3212262 18.52734375 2.59375 C19.28294083 2.74533569 20.0385379 2.89692139 20.81703186 3.05310059 C22.39288555 3.37019963 23.96827978 3.68959034 25.54321289 4.01123047 C27.95550243 4.50367501 30.36919157 4.9887308 32.78320312 5.47265625 C34.32300236 5.78342986 35.86271905 6.09461283 37.40234375 6.40625 C38.12107162 6.55106812 38.8397995 6.69588623 39.58030701 6.84509277 C42.45675502 7.43414632 45.21109954 8.07036651 48 9 C48 21.21 48 33.42 48 46 C41.59417919 45.35941792 35.49083479 44.65124723 29.21875 43.40625 C28.43858521 43.25466431 27.65842041 43.10307861 26.85461426 42.94689941 C25.22751807 42.62970996 23.60084962 42.31031863 21.97460938 41.98876953 C19.47895956 41.49584422 16.98181419 41.01111276 14.484375 40.52734375 C12.89573994 40.21662295 11.30719479 39.90544201 9.71875 39.59375 C8.97298706 39.44893188 8.22722412 39.30411377 7.4588623 39.15490723 C2.23125319 38.11562659 2.23125319 38.11562659 0 37 C0 24.79 0 12.58 0 0 Z " fill="#AFB0AF" transform="translate(34,138)"/>
<path d="M0 0 C0.66 0 1.32 0 2 0 C0.84396502 17.05151593 -5.87331481 32.02329148 -18 44 C-18.56460938 44.58652344 -19.12921875 45.17304688 -19.7109375 45.77734375 C-27.76559627 53.49802886 -38.83356632 56.28776568 -49.671875 56.234375 C-54.96473513 55.86163837 -59.92994218 54.51022999 -65 53 C-64.67515625 53.76054687 -64.3503125 54.52109375 -64.015625 55.3046875 C-62.83999797 58.42462077 -62.71211441 60.68931576 -63 64 C-63.66 64.99 -64.32 65.98 -65 67 C-68.125 67.1875 -68.125 67.1875 -71 67 C-72.4702397 62.64158191 -73.92722193 58.27916075 -75.3671875 53.91064453 C-75.90371597 52.29070941 -76.45071991 50.67424965 -77 49.05859375 C-78.70022764 43.83529826 -79.98578066 39.46660184 -79 34 C-76.76919634 31.08588712 -73.9582207 29.13816242 -71 27 C-69.841085 26.10332124 -68.68363026 25.20475321 -67.52734375 24.3046875 C-66.29091288 23.36734584 -65.05262357 22.43245064 -63.8125 21.5 C-63.21872559 21.04189941 -62.62495117 20.58379883 -62.01318359 20.11181641 C-59.18684492 18.05636932 -57.6283089 16.95302363 -54.07421875 17.21875 C-53.38972656 17.4765625 -52.70523438 17.734375 -52 18 C-51.1875 21.1875 -51.1875 21.1875 -51 25 C-53.3125 27.75 -53.3125 27.75 -56 30 C-56.66 30.99 -57.32 31.98 -58 33 C-49.72495027 36.81925372 -40.78906505 37.37811279 -31.9921875 34.75 C-16.74942162 29.01154696 -8.76207361 19.43488398 -2.0625 4.8125 C-1.36636522 3.21206152 -0.67545917 1.6092737 0 0 Z " fill="#312F2C" transform="translate(231,126)"/>
<path d="M0 0 C3.22417977 2.52361725 4.74648308 5.21157122 5.89453125 9.05078125 C6.15762309 12.13319397 6.12742721 15.19741082 6.08984375 18.2890625 C6.08701385 19.16982956 6.08418396 20.05059662 6.08126831 20.95805359 C6.07010958 23.7599367 6.04501296 26.56149541 6.01953125 29.36328125 C6.00949588 31.2675735 6.000371 33.17187077 5.9921875 35.07617188 C5.97018434 39.73449922 5.93568419 44.39258531 5.89453125 49.05078125 C0.94453125 49.54578125 0.94453125 49.54578125 -4.10546875 50.05078125 C-4.43546875 49.06078125 -4.76546875 48.07078125 -5.10546875 47.05078125 C-6.05421875 47.85515625 -7.00296875 48.65953125 -7.98046875 49.48828125 C-11.92825821 52.83532014 -14.62518245 53.443396 -19.77734375 53.41015625 C-23.69551111 52.80533847 -25.40905691 50.88201368 -28.10546875 48.05078125 C-30.3138751 43.63396854 -29.52708309 37.85835591 -29.10546875 33.05078125 C-26.40615268 27.35222509 -21.90240393 23.49700567 -16.10546875 21.05078125 C-13.30859375 20.63671875 -13.30859375 20.63671875 -10.35546875 20.42578125 C-9.370625 20.35101563 -8.38578125 20.27625 -7.37109375 20.19921875 C-6.6234375 20.15023437 -5.87578125 20.10125 -5.10546875 20.05078125 C-5.96588265 15.7184841 -5.96588265 15.7184841 -8.10546875 12.05078125 C-14.66625907 11.23068246 -18.63815032 13.57946796 -24.10546875 17.05078125 C-27.10546875 11.89078125 -27.10546875 11.89078125 -27.10546875 8.42578125 C-25.73929834 5.18112653 -24.02066076 3.99424259 -21.10546875 2.05078125 C-20.28046875 1.47328125 -19.45546875 0.89578125 -18.60546875 0.30078125 C-12.86139475 -1.75067375 -5.71574345 -2.57685651 0 0 Z " fill="#312F2C" transform="translate(195.10546875,82.94921875)"/>
<path d="M0 0 C-2.45279988 2.45279988 -3.7028811 2.48636289 -7.08984375 3.04296875 C-8.1670166 3.22617676 -9.24418945 3.40938477 -10.35400391 3.59814453 C-11.53655762 3.79263184 -12.71911133 3.98711914 -13.9375 4.1875 C-16.48625539 4.62293048 -19.0344074 5.06190351 -21.58203125 5.50390625 C-22.25470032 5.62058655 -22.92736938 5.73726685 -23.62042236 5.85748291 C-31.81858344 7.29515475 -39.96930892 8.96623762 -48.125 10.625 C-57.6994906 12.56667544 -67.26463304 14.48298804 -76.91577148 16.01049805 C-82.36271047 16.87459604 -87.77279958 17.89121235 -93.1875 18.9375 C-94.95570156 19.27228124 -96.72393106 19.60691498 -98.4921875 19.94140625 C-102.2969716 20.6639461 -106.0903254 21.43051399 -109.8828125 22.21484375 C-125.82911293 25.40174511 -138.34740116 24.97434285 -154 20 C-151.16729382 18.45510267 -148.63554464 17.58513116 -145.47070312 16.98193359 C-144.57032318 16.80740662 -143.66994324 16.63287964 -142.74227905 16.45306396 C-141.76513947 16.27003723 -140.78799988 16.0870105 -139.78125 15.8984375 C-138.75166168 15.70090881 -137.72207336 15.50338013 -136.6612854 15.29986572 C-133.27531709 14.65216582 -129.88774007 14.01336269 -126.5 13.375 C-124.14951971 12.92787176 -121.79909707 12.48044035 -119.44873047 12.03271484 C-100.96531484 8.5213723 -82.46169028 5.1218281 -63.9453125 1.7890625 C-63.14695984 1.64516083 -62.34860718 1.50125916 -61.52606201 1.35299683 C-56.99458518 0.53673946 -52.46209838 -0.27351953 -47.92871094 -1.07910156 C-45.90818951 -1.44067915 -43.88768141 -1.8023312 -41.8671875 -2.1640625 C-40.91232452 -2.3324765 -39.95746155 -2.5008905 -38.97366333 -2.67440796 C-37.650345 -2.91219467 -37.650345 -2.91219467 -36.30029297 -3.15478516 C-35.12561966 -3.36368881 -35.12561966 -3.36368881 -33.92721558 -3.57681274 C-23.17328813 -5.9382118 -10.96409471 -2.13586261 0 0 Z " fill="#674B44" transform="translate(205,14)"/>
<path d="M0 0 C0 17.16 0 34.32 0 52 C-3 53 -3 53 -11 53 C-11 36.17 -11 19.34 -11 2 C-3 0 -3 0 0 0 Z " fill="#33302D" transform="translate(222,76)"/>
<path d="M0 0 C3.3125 1.0625 3.3125 1.0625 5.3125 4.0625 C5.82390205 7.89801534 5.41232751 9.85086568 3.75 13.375 C1.3125 16.0625 1.3125 16.0625 -2.4375 16.9375 C-3.51 16.97875 -4.5825 17.02 -5.6875 17.0625 C-8.06263086 14.58840535 -8.67770096 13.12864352 -9.1875 9.6875 C-8.39445741 3.93794121 -6.3546816 0.10770647 0 0 Z " fill="#36332D" transform="translate(218.6875,52.9375)"/>
<path d="M0 0 C8.47010616 0.74764066 16.73354745 2.41306127 25.0625 4.0625 C26.51490834 4.34733999 27.96738186 4.63184788 29.41992188 4.91601562 C32.94737411 5.60685021 36.47392339 6.3021738 40 7 C40.495 8.98 40.495 8.98 41 11 C36.10636151 11.12432508 31.69140438 10.71595791 26.89453125 9.7578125 C26.24804123 9.62937958 25.60155121 9.50094666 24.93547058 9.36862183 C23.58107722 9.09781888 22.22734294 8.82370002 20.87426758 8.54638672 C18.80923254 8.12433219 16.74184089 7.7157774 14.67382812 7.30859375 C13.35140154 7.04246527 12.02912999 6.77556493 10.70703125 6.5078125 C8.92002808 6.14647217 8.92002808 6.14647217 7.09692383 5.77783203 C4.44090861 5.11073984 2.36147797 4.35306305 0 3 C0 2.01 0 1.02 0 0 Z " fill="#161719" transform="translate(37,155)"/>
<path d="M0 0 C4.48118067 0.75940757 8.95949744 1.53458915 13.4375 2.3125 C15.32758789 2.63250977 15.32758789 2.63250977 17.25585938 2.95898438 C24.08929589 4.15438972 30.49299064 5.58553842 37 8 C37 8.99 37 9.98 37 11 C29.23164249 10.40344444 21.69469 9.10331293 14.0625 7.5625 C12.94037109 7.34529297 11.81824219 7.12808594 10.66210938 6.90429688 C9.58896484 6.68966797 8.51582031 6.47503906 7.41015625 6.25390625 C6.44215088 6.06127197 5.47414551 5.8686377 4.47680664 5.67016602 C2 5 2 5 -1 3 C-0.67 2.01 -0.34 1.02 0 0 Z " fill="#151618" transform="translate(38,163)"/>
<path d="M0 0 C0.4152799 4.15279896 0.41253023 7.04848801 -2.0625 10.4375 C-5 13 -5 13 -8.75 13.4375 C-12 13 -12 13 -13 12 C-13.35897436 5.53846154 -13.35897436 5.53846154 -11 2 C-7.10834729 0.63071479 -4.14156548 0 0 0 Z " fill="#F4AD36" transform="translate(190,112)"/>
<path d="M0 0 C3.79255282 0.64070011 7.583872 1.28842655 11.375 1.9375 C12.45523438 2.11990234 13.53546875 2.30230469 14.6484375 2.49023438 C15.6796875 2.66748047 16.7109375 2.84472656 17.7734375 3.02734375 C18.72653809 3.18968506 19.67963867 3.35202637 20.66162109 3.51928711 C23 4 23 4 25 5 C24.67 6.32 24.34 7.64 24 9 C20.39377077 8.38653473 16.79047784 7.75725871 13.1875 7.125 C12.16333984 6.95097656 11.13917969 6.77695313 10.08398438 6.59765625 C9.10107422 6.42363281 8.11816406 6.24960938 7.10546875 6.0703125 C5.74651489 5.83465576 5.74651489 5.83465576 4.36010742 5.59423828 C2 5 2 5 -1 3 C-0.67 2.01 -0.34 1.02 0 0 Z " fill="#161719" transform="translate(38,147)"/>
<path d="M0 0 C0.66 0 1.32 0 2 0 C1.67 2.97 1.34 5.94 1 9 C0.01 8.34 -0.98 7.68 -2 7 C-1.34 4.69 -0.68 2.38 0 0 Z " fill="#5A4935" transform="translate(231,126)"/>
</svg>
