<svg xmlns="http://www.w3.org/2000/svg" data-name="Capa 2" viewBox="0 0 383.4 550.22"><path d="M176.88 8.08c1.38-.06 2.86-1.19 3.32-2.54s-.3-2.39-1.67-2.33-2.86 1.2-3.31 2.54.3 2.38 1.67 2.32ZM187 7.66c1.39-.06 2.89-1.2 3.35-2.55s-.3-2.4-1.69-2.34-2.89 1.2-3.35 2.55.3 2.39 1.69 2.34Zm10.24-.42c1.41-.06 2.93-1.21 3.39-2.57s-.3-2.41-1.71-2.35-2.93 1.21-3.39 2.57.3 2.41 1.71 2.35Zm10.36-.42c1.42-.06 2.96-1.21 3.43-2.58s-.31-2.43-1.73-2.36-2.96 1.22-3.43 2.58.31 2.42 1.73 2.36Zm10.47-.43c1.44-.06 3-1.22 3.47-2.6s-.31-2.44-1.76-2.38-2.99 1.23-3.46 2.6.31 2.44 1.75 2.38Zm10.6-.44c1.46-.06 3.03-1.23 3.51-2.61S231.86.89 230.4.95s-3.03 1.23-3.5 2.61.31 2.45 1.77 2.39Zm10.73-.44c1.48-.06 3.07-1.24 3.55-2.63s-.32-2.47-1.8-2.4-3.06 1.24-3.55 2.63.32 2.46 1.79 2.4Zm10.84-.44c1.49-.06 3.1-1.25 3.6-2.65s-.32-2.48-1.82-2.42-3.1 1.25-3.59 2.65.32 2.48 1.81 2.42Zm-76.67 12.81c1.37-.05 2.85-1.17 3.31-2.51s-.29-2.38-1.67-2.33-2.85 1.18-3.3 2.52.29 2.38 1.66 2.33Zm10.09-.36c1.39-.05 2.88-1.18 3.34-2.53s-.3-2.4-1.69-2.34-2.88 1.19-3.34 2.53.3 2.39 1.68 2.34Zm10.2-.37c1.4-.05 2.92-1.19 3.38-2.54s-.3-2.41-1.71-2.36-2.92 1.19-3.38 2.55.3 2.41 1.7 2.36Zm10.32-.37c1.42-.05 2.95-1.2 3.42-2.56s-.31-2.43-1.73-2.37-2.95 1.2-3.42 2.56.31 2.42 1.72 2.37Zm10.44-.37c1.44-.05 2.99-1.2 3.46-2.57s-.31-2.44-1.75-2.38-2.98 1.21-3.45 2.58.31 2.43 1.74 2.38Zm10.56-.37c1.45-.05 3.02-1.21 3.5-2.59s-.31-2.45-1.77-2.4-3.02 1.22-3.49 2.59.31 2.45 1.76 2.4Zm10.68-.38c1.47-.05 3.06-1.22 3.54-2.61s-.32-2.47-1.79-2.41-3.05 1.22-3.53 2.61.32 2.46 1.78 2.41Zm10.81-.39c1.49-.05 3.09-1.23 3.58-2.62s-.32-2.48-1.81-2.42-3.09 1.23-3.57 2.62.32 2.48 1.81 2.42Zm-86.34 12.67c1.35-.04 2.81-1.15 3.26-2.48s-.29-2.37-1.64-2.32-2.81 1.15-3.25 2.48.29 2.36 1.64 2.32Zm9.94-.3c1.37-.04 2.84-1.16 3.3-2.49s-.29-2.38-1.66-2.34-2.84 1.16-3.29 2.49.29 2.38 1.66 2.34Zm10.05-.3c1.38-.04 2.87-1.16 3.33-2.51s-.3-2.4-1.68-2.35-2.87 1.17-3.33 2.51.29 2.39 1.68 2.35Zm10.17-.31c1.4-.04 2.91-1.17 3.37-2.52s-.3-2.41-1.7-2.36-2.91 1.18-3.37 2.52.3 2.4 1.7 2.36Zm10.28-.31c1.41-.04 2.94-1.18 3.41-2.54s-.31-2.42-1.72-2.38-2.94 1.18-3.4 2.54.3 2.42 1.72 2.37Zm10.4-.32c1.43-.04 2.98-1.19 3.45-2.55s-.31-2.44-1.74-2.39-2.97 1.19-3.44 2.55.31 2.43 1.74 2.39Zm10.52-.31c1.45-.04 3.01-1.19 3.49-2.57s-.31-2.45-1.76-2.4-3 1.2-3.48 2.57.31 2.45 1.76 2.4Zm10.65-.33c1.46-.04 3.05-1.2 3.53-2.58s-.32-2.47-1.79-2.42-3.04 1.21-3.52 2.58.32 2.46 1.78 2.42Zm10.77-.32c1.48-.04 3.08-1.21 3.57-2.6s-.32-2.48-1.81-2.43-3.08 1.21-3.56 2.6.32 2.47 1.8 2.43Zm10.89-.33c1.5-.05 3.12-1.22 3.61-2.61s-.33-2.49-1.83-2.44-3.11 1.22-3.6 2.62.32 2.49 1.82 2.44Zm-96.93 12.5c1.35-.03 2.8-1.13 3.25-2.46s-.29-2.37-1.64-2.33-2.8 1.14-3.24 2.46.29 2.36 1.63 2.33Zm9.91-.24c1.36-.03 2.83-1.14 3.28-2.47s-.29-2.38-1.66-2.34-2.83 1.14-3.28 2.47.29 2.37 1.65 2.34Zm10.01-.25c1.38-.03 2.86-1.15 3.32-2.48s-.3-2.39-1.67-2.36-2.86 1.15-3.32 2.49.29 2.39 1.67 2.35Zm10.13-.25c1.39-.03 2.9-1.15 3.36-2.5s-.3-2.41-1.7-2.37-2.9 1.16-3.35 2.5.3 2.4 1.69 2.37Zm10.25-.25c1.41-.03 2.93-1.16 3.4-2.51s-.3-2.42-1.72-2.38-2.93 1.17-3.39 2.52.3 2.41 1.71 2.38Zm10.36-.26c1.43-.04 2.97-1.17 3.44-2.53s-.31-2.44-1.74-2.4-2.96 1.17-3.43 2.53.31 2.43 1.73 2.39Zm10.49-.26c1.44-.04 3-1.17 3.48-2.54s-.31-2.45-1.76-2.41-2.99 1.18-3.47 2.55.31 2.44 1.75 2.41Zm10.6-.26c1.46-.04 3.04-1.18 3.52-2.56s-.32-2.46-1.78-2.42-3.03 1.19-3.51 2.56.32 2.46 1.77 2.42Zm10.73-.27c1.48-.04 3.07-1.19 3.56-2.57s-.32-2.48-1.8-2.44-3.06 1.19-3.55 2.58.32 2.47 1.79 2.43Zm10.86-.27c1.49-.04 3.11-1.2 3.6-2.59s-.32-2.49-1.82-2.45-3.1 1.2-3.59 2.59.32 2.49 1.81 2.45Zm10.99-.27c1.51-.04 3.14-1.2 3.64-2.61s-.33-2.51-1.84-2.47-3.14 1.21-3.63 2.61c-.49 1.4.33 2.5 1.84 2.46ZM144.07 47.45c1.33-.03 2.76-1.11 3.2-2.42s-.28-2.35-1.61-2.32-2.76 1.11-3.19 2.42.28 2.35 1.61 2.32Zm9.76-.19c1.34-.03 2.79-1.12 3.24-2.43.44-1.32-.29-2.37-1.63-2.34s-2.79 1.12-3.23 2.44.29 2.36 1.63 2.33Zm9.87-.19c1.36-.03 2.82-1.12 3.27-2.45s-.29-2.38-1.65-2.35-2.82 1.13-3.27 2.45.29 2.37 1.65 2.35Zm9.98-.19c1.37-.03 2.85-1.13 3.31-2.46s-.29-2.39-1.67-2.36-2.85 1.13-3.3 2.46.29 2.39 1.67 2.36Zm10.09-.2c1.39-.03 2.89-1.14 3.35-2.48s-.3-2.41-1.69-2.37-2.89 1.14-3.34 2.48.3 2.4 1.68 2.37Zm10.21-.2c1.4-.03 2.92-1.14 3.38-2.49s-.3-2.42-1.71-2.39-2.92 1.15-3.38 2.49.3 2.41 1.7 2.39Zm10.33-.2c1.42-.03 2.96-1.15 3.42-2.51s-.31-2.43-1.73-2.4-2.95 1.15-3.42 2.51.31 2.43 1.72 2.4Zm10.45-.2c1.44-.03 2.99-1.16 3.46-2.52s-.31-2.45-1.75-2.42-2.98 1.16-3.45 2.52.31 2.44 1.74 2.41Zm10.56-.2c1.45-.03 3.02-1.16 3.5-2.54s-.32-2.46-1.77-2.43-3.02 1.17-3.5 2.54.31 2.45 1.76 2.43Zm10.7-.21c1.47-.03 3.06-1.17 3.54-2.55s-.32-2.48-1.79-2.44-3.05 1.18-3.54 2.55.32 2.47 1.79 2.44Zm10.81-.21c1.49-.03 3.1-1.18 3.59-2.57s-.32-2.49-1.82-2.46-3.09 1.18-3.58 2.57.32 2.48 1.81 2.45Zm10.95-.21c1.51-.03 3.13-1.18 3.63-2.58s-.33-2.5-1.84-2.47-3.13 1.19-3.62 2.58.33 2.5 1.83 2.47Zm11.07-.21c1.53-.03 3.17-1.19 3.67-2.6s-.33-2.52-1.86-2.49-3.16 1.2-3.66 2.6.33 2.51 1.85 2.48Zm11.21-.22c1.54-.03 3.2-1.2 3.71-2.61s-.33-2.53-1.88-2.5-3.2 1.21-3.7 2.62.33 2.53 1.87 2.5ZM131.25 57.14c1.31-.02 2.72-1.09 3.16-2.39s-.28-2.34-1.59-2.32-2.72 1.09-3.15 2.39.28 2.33 1.58 2.31Zm9.62-.13c1.32-.02 2.75-1.09 3.19-2.4s-.28-2.35-1.61-2.33-2.75 1.1-3.18 2.4.28 2.34 1.6 2.33Zm9.72-.14c1.34-.02 2.78-1.1 3.22-2.41s-.29-2.36-1.63-2.34-2.78 1.1-3.22 2.41.28 2.36 1.62 2.34Zm9.84-.14c1.35-.02 2.81-1.1 3.26-2.43s-.29-2.38-1.64-2.35-2.81 1.11-3.26 2.43.29 2.37 1.64 2.35Zm9.95-.13c1.37-.02 2.84-1.11 3.3-2.44s-.29-2.39-1.66-2.37-2.84 1.12-3.29 2.44c-.45 1.33.29 2.38 1.66 2.36Zm10.05-.14c1.38-.02 2.88-1.12 3.33-2.45s-.3-2.4-1.68-2.38-2.87 1.12-3.33 2.46.3 2.4 1.68 2.38Zm10.18-.14c1.4-.02 2.91-1.12 3.37-2.47s-.3-2.42-1.7-2.39-2.91 1.13-3.37 2.47.3 2.41 1.7 2.39Zm10.29-.15c1.42-.02 2.95-1.13 3.41-2.48s-.3-2.43-1.72-2.41-2.94 1.14-3.4 2.49.3 2.42 1.72 2.41Zm10.41-.14c1.43-.02 2.98-1.14 3.45-2.5s-.31-2.44-1.75-2.42-2.97 1.14-3.44 2.5.31 2.44 1.74 2.42Zm10.53-.15c1.45-.02 3.01-1.14 3.49-2.51s-.31-2.46-1.77-2.44-3.01 1.15-3.48 2.52.31 2.45 1.76 2.43Zm10.65-.14c1.47-.02 3.05-1.15 3.53-2.53s-.32-2.47-1.79-2.45-3.04 1.16-3.52 2.53.32 2.47 1.78 2.45Zm10.78-.15c1.48-.02 3.08-1.16 3.57-2.54s-.32-2.49-1.81-2.46-3.08 1.16-3.56 2.55c-.49 1.38.32 2.48 1.8 2.46Zm10.9-.16c1.5-.02 3.12-1.17 3.61-2.56s-.32-2.5-1.83-2.48-3.11 1.17-3.61 2.56.33 2.5 1.82 2.48Zm11.04-.15c1.52-.02 3.16-1.17 3.65-2.57s-.33-2.52-1.85-2.49-3.15 1.18-3.65 2.58.33 2.51 1.84 2.49Zm11.16-.15c1.54-.02 3.19-1.18 3.7-2.59s-.33-2.53-1.87-2.51-3.19 1.19-3.69 2.59.33 2.53 1.87 2.5Zm11.3-.16c1.56-.02 3.23-1.19 3.74-2.61s-.34-2.55-1.9-2.52-3.23 1.19-3.73 2.61.34 2.54 1.89 2.52Zm11.44-.16c1.58-.02 3.27-1.19 3.79-2.62s-.34-2.56-1.92-2.54-3.27 1.2-3.78 2.62.34 2.56 1.91 2.53Zm71.63-.99c1.69-.02 3.52-1.24 4.07-2.72s-.37-2.66-2.07-2.63-3.51 1.25-4.07 2.72.37 2.65 2.06 2.63ZM128.09 66.61c1.3-.01 2.71-1.07 3.14-2.37s-.28-2.34-1.58-2.32-2.71 1.07-3.14 2.37.28 2.33 1.58 2.32Zm9.59-.08c1.32-.01 2.74-1.08 3.18-2.38.44-1.3-.28-2.35-1.6-2.33s-2.74 1.08-3.17 2.38.28 2.34 1.6 2.33Zm9.69-.08c1.33-.01 2.77-1.08 3.21-2.39.44-1.31-.29-2.36-1.62-2.35s-2.77 1.09-3.21 2.39.28 2.36 1.62 2.34Zm9.8-.08c1.35-.01 2.8-1.09 3.25-2.41s-.29-2.37-1.64-2.36-2.8 1.09-3.25 2.41.29 2.37 1.63 2.36Zm9.91-.08c1.36-.01 2.83-1.09 3.29-2.42s-.29-2.39-1.66-2.37-2.83 1.1-3.28 2.42.29 2.38 1.65 2.37Zm10.03-.09c1.38-.01 2.87-1.1 3.32-2.43s-.3-2.4-1.68-2.39-2.86 1.11-3.32 2.43.29 2.4 1.67 2.38Zm10.13-.08c1.39-.01 2.9-1.11 3.36-2.45s-.3-2.41-1.7-2.4-2.9 1.11-3.36 2.45.3 2.41 1.69 2.4Zm10.26-.09c1.41-.01 2.93-1.11 3.4-2.46s-.3-2.43-1.72-2.41-2.93 1.12-3.39 2.46.3 2.42 1.71 2.41Zm10.37-.09c1.43-.01 2.97-1.12 3.44-2.48s-.31-2.44-1.74-2.43-2.96 1.13-3.43 2.48.31 2.44 1.73 2.43Zm10.49-.09c1.44-.01 3-1.13 3.48-2.49s-.31-2.46-1.76-2.44-3 1.13-3.47 2.49.31 2.45 1.75 2.44Zm10.61-.09c1.46-.01 3.04-1.13 3.52-2.5s-.32-2.47-1.78-2.45-3.03 1.14-3.51 2.51.31 2.47 1.77 2.45Zm10.74-.09c1.48-.01 3.07-1.14 3.56-2.52s-.32-2.49-1.8-2.47-3.07 1.15-3.55 2.52.32 2.48 1.79 2.47Zm10.87-.09c1.5-.01 3.11-1.15 3.6-2.53.49-1.39-.32-2.5-1.82-2.48s-3.1 1.15-3.59 2.54.32 2.49 1.81 2.48Zm10.99-.09c1.51-.01 3.14-1.15 3.64-2.55s-.33-2.52-1.84-2.5-3.14 1.16-3.63 2.55.33 2.51 1.84 2.5Zm11.13-.09c1.53-.01 3.18-1.16 3.68-2.57s-.33-2.53-1.87-2.51-3.18 1.17-3.68 2.57.33 2.52 1.86 2.51Zm11.25-.1c1.55-.01 3.22-1.17 3.73-2.58s-.34-2.55-1.89-2.53-3.21 1.17-3.72 2.58.34 2.54 1.88 2.53Zm11.4-.1c1.57-.01 3.26-1.18 3.77-2.6s-.34-2.56-1.91-2.54-3.25 1.18-3.77 2.6.34 2.55 1.91 2.54Zm11.53-.09c1.59-.01 3.3-1.18 3.82-2.61s-.35-2.58-1.94-2.56-3.29 1.19-3.81 2.61.35 2.57 1.93 2.56Zm47.56-.4c1.67-.01 3.46-1.21 4.01-2.68s-.37-2.64-2.04-2.62-3.46 1.22-4 2.68.37 2.63 2.03 2.62Zm12.27-.11c1.69-.01 3.51-1.22 4.06-2.7s-.37-2.66-2.06-2.64-3.5 1.23-4.05 2.7.37 2.65 2.05 2.64Zm12.42-.1c1.71-.01 3.55-1.23 4.11-2.71s-.38-2.67-2.09-2.65-3.55 1.23-4.1 2.71.37 2.67 2.08 2.65ZM124.95 76.06c1.3 0 2.7-1.05 3.13-2.34s-.28-2.33-1.58-2.33-2.7 1.06-3.13 2.35.27 2.33 1.57 2.32Zm9.55-.03c1.31 0 2.73-1.06 3.17-2.36s-.28-2.35-1.6-2.34-2.73 1.06-3.16 2.36.28 2.34 1.59 2.34Zm9.66-.03c1.33 0 2.76-1.07 3.2-2.37s-.28-2.36-1.61-2.35-2.76 1.07-3.2 2.37.28 2.35 1.61 2.35Zm9.76-.03c1.34 0 2.79-1.07 3.24-2.38s-.29-2.37-1.63-2.36-2.79 1.08-3.23 2.39.29 2.37 1.63 2.36Zm9.88-.03c1.36 0 2.82-1.08 3.27-2.4s-.29-2.39-1.65-2.38-2.82 1.08-3.27 2.4.29 2.38 1.65 2.38Zm9.99-.03c1.37 0 2.86-1.08 3.31-2.41s-.3-2.4-1.67-2.39-2.85 1.09-3.31 2.41.29 2.39 1.67 2.39Zm10.1-.03c1.39 0 2.89-1.09 3.35-2.43s-.3-2.41-1.69-2.4-2.89 1.09-3.34 2.43.3 2.41 1.69 2.4Zm10.22-.03c1.41 0 2.92-1.1 3.39-2.44s-.3-2.43-1.71-2.42-2.92 1.1-3.38 2.44.3 2.42 1.7 2.42Zm10.33-.03c1.42 0 2.96-1.1 3.43-2.45s-.31-2.44-1.73-2.43-2.95 1.11-3.42 2.45.31 2.44 1.72 2.43Zm10.46-.03c1.44 0 2.99-1.11 3.47-2.47s-.31-2.45-1.75-2.45-2.99 1.11-3.46 2.47.31 2.45 1.75 2.44Zm10.57-.03c1.46 0 3.03-1.12 3.51-2.48s-.31-2.47-1.77-2.46-3.02 1.12-3.5 2.48c-.48 1.36.31 2.46 1.77 2.46Zm10.7-.03c1.47 0 3.06-1.12 3.55-2.5s-.32-2.48-1.8-2.47-3.06 1.13-3.54 2.5.32 2.48 1.79 2.47Zm10.83-.04c1.49 0 3.1-1.13 3.59-2.51s-.32-2.5-1.82-2.49-3.09 1.13-3.58 2.51.32 2.49 1.81 2.49Zm10.95-.03c1.51 0 3.13-1.14 3.63-2.53s-.33-2.51-1.84-2.5-3.13 1.14-3.62 2.53.33 2.51 1.83 2.5Zm11.08-.03c1.53 0 3.17-1.14 3.67-2.54s-.33-2.53-1.86-2.52-3.16 1.15-3.66 2.54.33 2.52 1.85 2.52Zm11.22-.04c1.54 0 3.21-1.15 3.71-2.56s-.34-2.54-1.88-2.53-3.2 1.15-3.71 2.56.33 2.54 1.87 2.53Zm11.35-.03c1.56 0 3.25-1.16 3.76-2.57s-.34-2.56-1.91-2.55-3.24 1.16-3.75 2.57.34 2.55 1.9 2.55Zm58.87-.18c1.66 0 3.45-1.19 3.99-2.65s-.37-2.64-2.03-2.63-3.44 1.2-3.98 2.65.36 2.63 2.02 2.63Zm12.22-.03c1.68 0 3.49-1.2 4.04-2.67.55-1.47-.37-2.65-2.06-2.64s-3.49 1.21-4.03 2.67.37 2.65 2.05 2.64Zm12.37-.04c1.7 0 3.54-1.21 4.09-2.69s-.38-2.67-2.08-2.66-3.53 1.21-4.09 2.69.37 2.66 2.07 2.66ZM121.81 85.47c1.29 0 2.69-1.04 3.12-2.32s-.28-2.33-1.57-2.33-2.69 1.04-3.12 2.33.27 2.33 1.57 2.33Zm9.52.03c1.31 0 2.72-1.04 3.16-2.34s-.28-2.34-1.59-2.34-2.72 1.05-3.15 2.34.28 2.34 1.58 2.34Zm9.63.02c1.32 0 2.75-1.05 3.19-2.35s-.28-2.36-1.61-2.36-2.75 1.05-3.19 2.35.28 2.35 1.6 2.36Zm9.73.02c1.34 0 2.78-1.05 3.23-2.36s-.29-2.37-1.63-2.37-2.78 1.06-3.22 2.36.29 2.37 1.62 2.37Zm9.84.03c1.35 0 2.81-1.06 3.26-2.38s-.29-2.38-1.64-2.38-2.81 1.07-3.26 2.38.29 2.38 1.64 2.38Zm9.95.02c1.37 0 2.85-1.07 3.3-2.39s-.29-2.4-1.66-2.4-2.84 1.07-3.3 2.39.29 2.39 1.66 2.4Zm10.07.03c1.38 0 2.88-1.07 3.34-2.4s-.3-2.41-1.68-2.41-2.88 1.08-3.33 2.4.3 2.41 1.68 2.41Zm10.18.02c1.4 0 2.91-1.08 3.38-2.42s-.3-2.42-1.71-2.42-2.91 1.08-3.37 2.42.3 2.42 1.7 2.42Zm10.3.03c1.42 0 2.95-1.08 3.41-2.43s-.31-2.44-1.73-2.44-2.94 1.09-3.41 2.43.3 2.43 1.72 2.44Zm10.41.02c1.43 0 2.98-1.09 3.45-2.44s-.31-2.45-1.75-2.45-2.98 1.1-3.45 2.45.31 2.45 1.74 2.45Zm10.54.03c1.45 0 3.02-1.1 3.49-2.46s-.31-2.47-1.77-2.47-3.01 1.1-3.48 2.46.31 2.46 1.76 2.46Zm10.66.02c1.47 0 3.05-1.1 3.53-2.47s-.32-2.48-1.79-2.48-3.04 1.11-3.52 2.47.32 2.48 1.78 2.48Zm10.79.03c1.49 0 3.08-1.11 3.57-2.49s-.32-2.5-1.81-2.5-3.08 1.12-3.57 2.49.32 2.49 1.8 2.49Zm10.91.03c1.5 0 3.12-1.12 3.61-2.5.49-1.39-.32-2.51-1.83-2.51s-3.12 1.12-3.61 2.5.32 2.5 1.82 2.51Zm11.04.03c1.52 0 3.16-1.12 3.66-2.52s-.33-2.53-1.85-2.53-3.15 1.13-3.65 2.52.33 2.52 1.85 2.52Zm11.18.02c1.54 0 3.2-1.13 3.7-2.53s-.33-2.54-1.88-2.54-3.19 1.14-3.69 2.53.33 2.53 1.87 2.54Zm11.31.03c1.56 0 3.23-1.14 3.75-2.55s-.34-2.56-1.9-2.56-3.23 1.14-3.74 2.55.34 2.55 1.89 2.55Zm11.44.03c1.58 0 3.27-1.14 3.79-2.56s-.34-2.57-1.92-2.57-3.27 1.15-3.78 2.56.34 2.57 1.91 2.57Zm35.19.09c1.64 0 3.39-1.16 3.93-2.61s-.36-2.62-2-2.62-3.39 1.17-3.92 2.61c-.53 1.44.36 2.61 1.99 2.62Zm12.01.02c1.65 0 3.44-1.17 3.98-2.63s-.36-2.64-2.02-2.63-3.43 1.18-3.97 2.63.36 2.63 2.01 2.63Zm12.17.03c1.67 0 3.48-1.18 4.03-2.64s-.37-2.65-2.05-2.65-3.47 1.18-4.02 2.64.36 2.65 2.04 2.65Zm12.33.04c1.69 0 3.52-1.19 4.08-2.66s-.38-2.67-2.07-2.67-3.52 1.19-4.07 2.66.37 2.66 2.07 2.67Zm-252.33 8.76c1.29.01 2.68-1.02 3.11-2.3s-.27-2.33-1.57-2.34-2.68 1.03-3.11 2.31.27 2.32 1.56 2.33Zm9.49.08c1.3.01 2.71-1.03 3.15-2.32s-.28-2.34-1.58-2.35-2.71 1.03-3.14 2.32.27 2.34 1.58 2.35Zm9.59.08c1.32.01 2.74-1.03 3.18-2.33s-.28-2.36-1.6-2.36-2.74 1.04-3.18 2.33.28 2.35 1.6 2.36Zm9.7.07c1.33.01 2.77-1.04 3.22-2.34s-.29-2.37-1.62-2.38-2.77 1.04-3.21 2.34.28 2.36 1.62 2.37Zm9.81.08c1.35.01 2.8-1.04 3.25-2.36s-.29-2.38-1.64-2.39-2.8 1.05-3.25 2.36.29 2.38 1.64 2.39Zm9.92.08c1.36.01 2.84-1.05 3.29-2.37s-.29-2.4-1.66-2.4-2.83 1.05-3.28 2.37.29 2.39 1.65 2.4Zm10.03.08c1.38.01 2.87-1.06 3.33-2.38s-.3-2.41-1.68-2.42-2.87 1.06-3.32 2.38.3 2.4 1.67 2.41Zm10.14.08c1.4.01 2.9-1.06 3.36-2.4s-.3-2.42-1.7-2.43-2.9 1.07-3.36 2.4.3 2.42 1.69 2.43Zm10.26.08c1.41.01 2.94-1.07 3.4-2.41s-.3-2.44-1.72-2.44-2.93 1.07-3.39 2.41.3 2.43 1.71 2.44Zm10.38.08c1.43.01 2.97-1.07 3.44-2.42s-.31-2.45-1.74-2.46-2.97 1.08-3.43 2.42.31 2.45 1.73 2.46Zm10.5.08c1.45.01 3-1.08 3.48-2.44s-.31-2.47-1.76-2.47-3 1.08-3.47 2.44.31 2.46 1.75 2.47Zm10.62.09c1.46.01 3.04-1.09 3.52-2.45.48-1.37-.32-2.48-1.78-2.49s-3.03 1.09-3.51 2.45.31 2.47 1.77 2.49Zm10.75.08c1.48.01 3.07-1.09 3.56-2.46s-.32-2.49-1.8-2.5-3.07 1.1-3.55 2.47.32 2.49 1.79 2.5Zm10.87.09c1.5.01 3.11-1.1 3.6-2.48s-.32-2.51-1.82-2.52-3.1 1.1-3.59 2.48.32 2.5 1.82 2.51Zm11.01.09c1.51.01 3.15-1.1 3.64-2.49s-.33-2.52-1.85-2.53-3.14 1.11-3.64 2.5.33 2.52 1.84 2.53Zm11.13.08c1.53.01 3.18-1.11 3.69-2.51s-.33-2.54-1.87-2.55-3.18 1.12-3.68 2.51.33 2.53 1.86 2.54Zm11.27.09c1.55.01 3.22-1.12 3.73-2.52s-.34-2.55-1.89-2.56-3.22 1.12-3.72 2.53.34 2.55 1.88 2.56Zm11.4.09c1.57.01 3.26-1.12 3.78-2.54s-.34-2.57-1.91-2.58-3.26 1.13-3.77 2.54c-.51 1.41.34 2.56 1.91 2.58Zm11.54.09c1.59.01 3.3-1.13 3.82-2.55s-.35-2.59-1.94-2.59-3.29 1.14-3.81 2.56.34 2.58 1.93 2.59Zm11.68.1c1.61.01 3.34-1.14 3.87-2.57s-.35-2.6-1.96-2.61-3.34 1.14-3.86 2.57.35 2.59 1.95 2.61Zm11.83.09c1.63.01 3.38-1.14 3.91-2.58s-.36-2.62-1.99-2.63-3.38 1.15-3.91 2.59.36 2.61 1.98 2.62Zm11.97.1c1.65.01 3.42-1.15 3.96-2.6s-.36-2.63-2.01-2.64-3.42 1.16-3.95 2.6.36 2.63 2 2.64Zm12.12.09c1.67.01 3.47-1.16 4.01-2.62s-.37-2.65-2.04-2.66-3.46 1.16-4 2.62.36 2.64 2.03 2.66Zm-257.72 7.24c1.26.02 2.62-.99 3.04-2.26s-.27-2.3-1.53-2.32-2.61 1-3.03 2.26.26 2.3 1.52 2.31Zm9.25.12c1.27.02 2.65-1 3.07-2.27s-.27-2.32-1.54-2.33-2.64 1-3.06 2.27.27 2.31 1.54 2.33Zm9.35.13c1.29.02 2.68-1.01 3.1-2.28s-.27-2.33-1.56-2.34-2.67 1.01-3.1 2.29.27 2.32 1.56 2.34Zm9.45.12c1.3.02 2.7-1.01 3.14-2.3s-.28-2.34-1.58-2.35-2.7 1.02-3.13 2.3.27 2.34 1.57 2.35Zm9.56.13c1.31.02 2.73-1.02 3.17-2.31s-.28-2.35-1.6-2.37-2.73 1.02-3.17 2.31.28 2.35 1.59 2.37Zm9.67.13c1.33.02 2.77-1.02 3.21-2.32s-.28-2.37-1.62-2.38-2.76 1.03-3.2 2.32.28 2.36 1.61 2.38Zm9.77.13c1.34.02 2.8-1.03 3.24-2.33.44-1.31-.29-2.38-1.63-2.39s-2.79 1.03-3.24 2.34.29 2.37 1.63 2.39Zm9.89.13c1.36.02 2.83-1.03 3.28-2.35s-.29-2.39-1.65-2.41-2.83 1.04-3.27 2.35.29 2.39 1.65 2.41Zm9.99.14c1.37.02 2.86-1.04 3.31-2.36s-.3-2.41-1.67-2.42-2.86 1.04-3.31 2.36.29 2.4 1.67 2.42Zm10.11.13c1.39.02 2.89-1.04 3.35-2.37s-.3-2.42-1.69-2.44-2.89 1.05-3.34 2.38.3 2.42 1.69 2.43Zm10.22.14c1.41.02 2.93-1.05 3.39-2.39s-.3-2.43-1.71-2.45-2.92 1.05-3.38 2.39.3 2.43 1.7 2.45Zm10.35.14c1.42.02 2.96-1.06 3.43-2.4s-.31-2.45-1.73-2.46-2.95 1.06-3.42 2.4.31 2.44 1.73 2.46Zm10.46.14c1.44.02 2.99-1.06 3.47-2.41s-.31-2.46-1.75-2.48-2.99 1.07-3.46 2.42.31 2.46 1.75 2.48Zm10.58.14c1.46.02 3.03-1.07 3.51-2.43s-.32-2.48-1.78-2.49-3.02 1.07-3.5 2.43.31 2.47 1.77 2.49Zm10.71.14c1.47.02 3.06-1.07 3.55-2.44s-.32-2.49-1.79-2.51-3.06 1.08-3.54 2.44.32 2.49 1.79 2.51Zm10.83.15c1.49.02 3.1-1.08 3.59-2.46s-.32-2.51-1.82-2.52-3.09 1.08-3.58 2.46.32 2.5 1.81 2.52Zm10.96.14c1.51.02 3.13-1.09 3.63-2.47s-.33-2.52-1.84-2.54-3.13 1.09-3.62 2.47.33 2.52 1.83 2.54Zm11.09.15c1.53.02 3.17-1.09 3.67-2.48s-.33-2.54-1.86-2.55-3.17 1.1-3.67 2.49.33 2.53 1.85 2.55Zm11.23.15c1.55.02 3.21-1.1 3.72-2.5s-.34-2.55-1.88-2.57-3.2 1.1-3.71 2.5.34 2.55 1.88 2.57Zm11.36.15c1.56.02 3.25-1.1 3.76-2.51s-.34-2.57-1.91-2.58-3.24 1.11-3.75 2.52.34 2.56 1.9 2.58Zm11.5.16c1.58.02 3.29-1.11 3.81-2.53s-.34-2.58-1.93-2.6-3.28 1.12-3.8 2.53.34 2.58 1.92 2.6Zm11.63.15c1.6.02 3.33-1.12 3.85-2.54s-.35-2.6-1.96-2.62-3.32 1.12-3.85 2.55.35 2.59 1.95 2.61Zm11.79.16c1.62.02 3.37-1.12 3.9-2.56s-.35-2.61-1.98-2.63-3.36 1.13-3.89 2.56.35 2.61 1.97 2.63Zm-232.8 6.15c1.25.02 2.61-.98 3.03-2.24s-.27-2.3-1.52-2.32-2.61.98-3.02 2.24.26 2.3 1.52 2.32Zm9.22.17c1.27.02 2.64-.98 3.06-2.25s-.27-2.31-1.54-2.33-2.63.99-3.05 2.25.27 2.31 1.53 2.33Zm9.32.18c1.28.02 2.67-.99 3.09-2.26s-.27-2.33-1.56-2.35-2.66.99-3.09 2.27.27 2.32 1.55 2.34Zm9.43.18c1.3.02 2.7-.99 3.13-2.28s-.28-2.34-1.57-2.36-2.69 1-3.12 2.28.27 2.33 1.57 2.36Zm9.52.18c1.31.02 2.73-1 3.16-2.29s-.28-2.35-1.59-2.37-2.72 1-3.16 2.29.28 2.35 1.59 2.37Zm9.63.18c1.32.02 2.76-1 3.19-2.3s-.28-2.37-1.61-2.39-2.75 1.01-3.19 2.3.28 2.36 1.61 2.38Zm9.75.18c1.34.03 2.79-1.01 3.23-2.31s-.29-2.38-1.63-2.4-2.78 1.02-3.23 2.32.28 2.37 1.62 2.4Zm9.84.18c1.35.03 2.82-1.02 3.27-2.33s-.29-2.39-1.65-2.41-2.82 1.02-3.26 2.33.29 2.39 1.64 2.41Zm9.96.19c1.37.03 2.85-1.02 3.3-2.34s-.29-2.41-1.67-2.43-2.85 1.03-3.3 2.34.29 2.4 1.66 2.42Zm10.07.19c1.39.03 2.88-1.03 3.34-2.35s-.3-2.42-1.69-2.44-2.88 1.03-3.33 2.35.3 2.41 1.68 2.44Zm10.19.19c1.4.03 2.92-1.03 3.38-2.36s-.3-2.43-1.71-2.46-2.91 1.04-3.37 2.37.3 2.43 1.7 2.45Zm10.31.2c1.42.03 2.95-1.04 3.42-2.38s-.31-2.45-1.73-2.47-2.94 1.04-3.41 2.38.31 2.44 1.72 2.47Zm10.42.19c1.44.03 2.98-1.04 3.46-2.39s-.31-2.46-1.75-2.48-2.98 1.05-3.45 2.39.31 2.45 1.74 2.48Zm10.55.2c1.45.03 3.02-1.05 3.5-2.4s-.31-2.48-1.77-2.5-3.01 1.05-3.49 2.41.31 2.47 1.76 2.5Zm10.66.2c1.47.03 3.05-1.05 3.53-2.42s-.32-2.49-1.79-2.51-3.05 1.06-3.53 2.42.32 2.48 1.78 2.51Zm10.8.21c1.49.03 3.09-1.06 3.58-2.43s-.32-2.5-1.81-2.53-3.08 1.07-3.57 2.43.32 2.5 1.8 2.53Zm10.92.2c1.5.03 3.12-1.07 3.62-2.45s-.32-2.52-1.83-2.54-3.12 1.07-3.61 2.45.33 2.51 1.82 2.54Zm11.05.21c1.52.03 3.16-1.07 3.66-2.46s-.33-2.53-1.85-2.56-3.16 1.08-3.65 2.46.33 2.53 1.85 2.56Zm11.18.21c1.54.03 3.2-1.08 3.7-2.47s-.33-2.55-1.88-2.57-3.19 1.08-3.7 2.48.33 2.54 1.87 2.57Zm11.32.21c1.56.03 3.24-1.08 3.75-2.49s-.34-2.57-1.9-2.59-3.23 1.09-3.74 2.49.34 2.56 1.89 2.59Zm11.46.22c1.58.03 3.28-1.09 3.79-2.5s-.34-2.58-1.92-2.61-3.27 1.1-3.78 2.51.34 2.57 1.91 2.6Zm11.59.22c1.6.03 3.32-1.1 3.84-2.52s-.35-2.6-1.95-2.62-3.31 1.1-3.83 2.52.35 2.59 1.94 2.62Zm-220.22 5.1c1.25.03 2.6-.96 3.02-2.22s-.26-2.3-1.52-2.33-2.6.97-3.01 2.22.26 2.29 1.51 2.32Zm9.19.23c1.26.03 2.63-.97 3.05-2.23s-.27-2.31-1.53-2.34-2.62.97-3.04 2.23.26 2.31 1.53 2.34Zm9.29.22c1.28.03 2.66-.97 3.08-2.24s-.27-2.32-1.55-2.35-2.65.98-3.08 2.25.27 2.32 1.54 2.35Zm9.39.23c1.29.03 2.69-.98 3.11-2.26s-.27-2.34-1.57-2.36-2.68.98-3.11 2.26.27 2.33 1.56 2.36Zm9.49.23c1.3.03 2.72-.98 3.15-2.27s-.28-2.35-1.59-2.38-2.71.99-3.14 2.27.28 2.34 1.58 2.38Zm9.6.23c1.32.03 2.75-.99 3.18-2.28s-.28-2.36-1.6-2.39-2.74.99-3.18 2.28.28 2.36 1.6 2.39Zm9.71.24c1.33.03 2.78-.99 3.22-2.29s-.28-2.38-1.62-2.41-2.77 1-3.21 2.29.28 2.37 1.62 2.4Zm9.81.24c1.35.03 2.81-1 3.25-2.3s-.29-2.39-1.64-2.42-2.81 1-3.25 2.31.29 2.38 1.64 2.42Zm9.93.24c1.36.03 2.84-1 3.29-2.32s-.29-2.4-1.66-2.43-2.84 1.01-3.29 2.32.29 2.4 1.66 2.43Zm10.03.24c1.38.03 2.87-1.01 3.33-2.33s-.3-2.42-1.68-2.45-2.87 1.01-3.32 2.33.3 2.41 1.67 2.44Zm10.15.25c1.4.03 2.91-1.01 3.37-2.34s-.3-2.43-1.7-2.46-2.9 1.02-3.36 2.35.3 2.42 1.69 2.46Zm10.27.25c1.41.03 2.94-1.02 3.4-2.36s-.31-2.44-1.72-2.48-2.93 1.03-3.4 2.36.3 2.44 1.71 2.47Zm10.39.25c1.43.03 2.97-1.03 3.44-2.37s-.31-2.46-1.74-2.49-2.97 1.03-3.44 2.37.31 2.45 1.73 2.49Zm10.51.25c1.45.04 3.01-1.03 3.48-2.38s-.31-2.47-1.76-2.5-3 1.04-3.47 2.38.31 2.47 1.75 2.5Zm10.63.26c1.46.04 3.04-1.04 3.52-2.4.48-1.36-.32-2.49-1.78-2.52s-3.04 1.04-3.51 2.4.32 2.48 1.77 2.52Zm10.75.26c1.48.04 3.08-1.04 3.56-2.41s-.32-2.5-1.8-2.53-3.07 1.05-3.56 2.41.32 2.5 1.8 2.53Zm10.88.27c1.5.04 3.11-1.05 3.6-2.42s-.32-2.52-1.82-2.55-3.11 1.05-3.6 2.43.32 2.51 1.82 2.55Zm11.01.26c1.52.04 3.15-1.05 3.65-2.44s-.33-2.53-1.85-2.57-3.14 1.06-3.64 2.44.33 2.53 1.84 2.56Zm11.14.27c1.53.04 3.19-1.06 3.69-2.45s-.33-2.55-1.87-2.58-3.18 1.07-3.68 2.45.33 2.54 1.86 2.58Zm11.28.28c1.55.04 3.22-1.07 3.73-2.46s-.34-2.56-1.89-2.6-3.22 1.07-3.73 2.47.34 2.56 1.89 2.59Zm11.41.27c1.57.04 3.26-1.07 3.78-2.48s-.34-2.58-1.92-2.61-3.26 1.08-3.77 2.48.34 2.57 1.91 2.61Zm-207.88 4.2c1.25.04 2.59-.95 3.01-2.2s-.26-2.3-1.51-2.33-2.59.95-3 2.2.26 2.29 1.51 2.33Zm9.16.27c1.26.04 2.62-.95 3.04-2.21s-.27-2.31-1.53-2.34-2.62.96-3.03 2.21.26 2.3 1.52 2.34Zm9.25.27c1.27.04 2.65-.96 3.07-2.22s-.27-2.32-1.54-2.36-2.64.96-3.07 2.23.27 2.32 1.54 2.35Zm9.36.28c1.29.04 2.68-.96 3.1-2.24s-.27-2.34-1.56-2.37-2.67.97-3.1 2.24.27 2.33 1.56 2.37Zm9.46.28c1.3.04 2.71-.97 3.14-2.25s-.28-2.35-1.58-2.38-2.7.97-3.13 2.25.28 2.34 1.58 2.38Zm9.57.29c1.31.04 2.74-.97 3.17-2.26s-.28-2.36-1.6-2.4-2.73.98-3.17 2.26.28 2.36 1.59 2.39Zm9.67.28c1.33.04 2.77-.98 3.21-2.27s-.28-2.37-1.62-2.41-2.76.98-3.2 2.27.28 2.37 1.61 2.41Zm9.78.29c1.34.04 2.8-.98 3.24-2.28s-.29-2.39-1.63-2.42-2.8.99-3.24 2.29.29 2.38 1.63 2.42Zm9.89.3c1.36.04 2.83-.99 3.28-2.3s-.29-2.4-1.65-2.44-2.83.99-3.27 2.3.29 2.4 1.65 2.44Zm10 .3c1.38.04 2.86-.99 3.32-2.31s-.29-2.41-1.67-2.45-2.86 1-3.31 2.31.3 2.41 1.67 2.45Zm10.12.3c1.39.04 2.9-1 3.35-2.32s-.3-2.43-1.69-2.47-2.89 1-3.35 2.32.3 2.42 1.69 2.46Zm10.23.3c1.41.04 2.93-1 3.39-2.33s-.3-2.44-1.71-2.48-2.92 1.01-3.39 2.34.3 2.44 1.71 2.48Zm10.35.31c1.43.04 2.96-1.01 3.43-2.35.47-1.34-.31-2.46-1.73-2.5s-2.96 1.01-3.42 2.35.31 2.45 1.73 2.49Zm10.47.31c1.44.04 3-1.01 3.47-2.36s-.31-2.47-1.76-2.51-2.99 1.02-3.46 2.36.31 2.46 1.75 2.51Zm10.59.31c1.46.04 3.03-1.02 3.51-2.37s-.31-2.49-1.77-2.53-3.02 1.02-3.5 2.38.31 2.48 1.77 2.52Zm10.71.32c1.48.04 3.06-1.02 3.55-2.39s-.32-2.5-1.8-2.54-3.06 1.03-3.54 2.39.32 2.49 1.79 2.54Zm10.84.33c1.49.04 3.1-1.03 3.59-2.4s-.32-2.52-1.82-2.56-3.1 1.04-3.58 2.4.32 2.51 1.81 2.55Zm10.97.32c1.51.04 3.14-1.04 3.63-2.41s-.33-2.53-1.84-2.57-3.13 1.04-3.63 2.42.33 2.52 1.83 2.57Zm11.1.33c1.53.05 3.17-1.04 3.68-2.43s-.33-2.55-1.86-2.59-3.17 1.05-3.67 2.43.33 2.54 1.86 2.58Zm11.24.34c1.55.05 3.21-1.05 3.72-2.44s-.34-2.56-1.89-2.6-3.21 1.05-3.71 2.44.34 2.55 1.88 2.6Zm11.37.33c1.57.05 3.25-1.05 3.76-2.45s-.34-2.58-1.91-2.62-3.24 1.06-3.76 2.46.34 2.57 1.9 2.62Zm-207.14 3.07c1.24.04 2.58-.93 3-2.18s-.26-2.3-1.51-2.34-2.58.94-2.99 2.18.26 2.29 1.5 2.33Zm9.12.32c1.25.04 2.61-.94 3.03-2.19s-.27-2.31-1.52-2.35-2.61.94-3.02 2.19.26 2.3 1.52 2.35Zm9.23.32c1.27.04 2.64-.94 3.06-2.2s-.27-2.32-1.54-2.36-2.64.95-3.05 2.21.27 2.32 1.53 2.36Zm9.32.33c1.28.05 2.67-.95 3.09-2.22s-.27-2.33-1.56-2.37-2.66.95-3.09 2.22.27 2.33 1.55 2.37Zm9.43.33c1.3.05 2.7-.95 3.13-2.23s-.28-2.35-1.57-2.39-2.7.96-3.12 2.23.27 2.34 1.57 2.39Zm9.54.34c1.31.05 2.73-.96 3.16-2.24s-.28-2.36-1.59-2.4-2.73.96-3.16 2.24.28 2.35 1.59 2.4Zm9.63.34c1.32.05 2.76-.96 3.2-2.25s-.28-2.37-1.61-2.42-2.76.97-3.19 2.25.28 2.37 1.61 2.41Zm9.75.34c1.34.05 2.79-.97 3.23-2.26s-.29-2.39-1.63-2.43-2.79.97-3.23 2.26.29 2.38 1.62 2.43Zm9.86.35c1.35.05 2.82-.97 3.27-2.28s-.29-2.4-1.65-2.44-2.82.98-3.26 2.28.29 2.39 1.64 2.44Zm9.96.35c1.37.05 2.85-.98 3.31-2.29s-.29-2.41-1.67-2.46-2.85.98-3.3 2.29.29 2.41 1.66 2.46Zm10.08.35c1.39.05 2.89-.98 3.34-2.3s-.3-2.43-1.69-2.47-2.88.99-3.33 2.3.3 2.42 1.68 2.47Zm10.2.36c1.4.05 2.92-.99 3.38-2.31s-.3-2.44-1.71-2.49-2.91.99-3.37 2.31.3 2.43 1.7 2.48Zm10.31.37c1.42.05 2.95-.99 3.42-2.32s-.31-2.45-1.73-2.5-2.95 1-3.41 2.33.3 2.45 1.72 2.5Zm10.43.36c1.44.05 2.99-1 3.46-2.34s-.31-2.47-1.75-2.52-2.98 1-3.45 2.34.31 2.46 1.74 2.51Zm10.55.37c1.45.05 3.02-1 3.5-2.35s-.31-2.48-1.77-2.53-3.01 1.01-3.49 2.35.31 2.48 1.76 2.53Zm10.68.38c1.47.05 3.05-1.01 3.54-2.36s-.32-2.5-1.79-2.55-3.05 1.01-3.53 2.37.32 2.49 1.78 2.54Zm10.8.38c1.49.05 3.09-1.01 3.58-2.38s-.32-2.51-1.81-2.56-3.08 1.02-3.57 2.38.32 2.51 1.8 2.56Zm10.93.38c1.5.05 3.13-1.02 3.62-2.39s-.33-2.53-1.83-2.58-3.12 1.02-3.61 2.39.33 2.52 1.83 2.57Zm11.06.39c1.52.05 3.16-1.02 3.66-2.4s-.33-2.54-1.86-2.59-3.16 1.03-3.66 2.41.33 2.54 1.85 2.59Zm11.19.4c1.54.05 3.2-1.03 3.71-2.42s-.33-2.56-1.88-2.61-3.2 1.03-3.7 2.42.33 2.55 1.87 2.61Zm-195.08 2.34c1.24.05 2.58-.92 2.99-2.16s-.26-2.29-1.5-2.34-2.57.92-2.98 2.16.26 2.29 1.5 2.34Zm9.1.37c1.25.05 2.6-.92 3.02-2.17s-.27-2.31-1.52-2.35-2.6.93-3.01 2.18.26 2.3 1.51 2.35Zm9.19.38c1.26.05 2.63-.93 3.05-2.18s-.27-2.32-1.53-2.37-2.63.93-3.04 2.19.27 2.31 1.53 2.36Zm9.3.38c1.28.05 2.66-.93 3.08-2.2s-.27-2.33-1.55-2.38-2.66.94-3.08 2.2.27 2.33 1.55 2.38Zm9.39.38c1.29.05 2.69-.94 3.12-2.21s-.28-2.34-1.57-2.39-2.69.94-3.11 2.21.27 2.34 1.56 2.39Zm9.5.38c1.31.05 2.72-.94 3.15-2.22s-.28-2.36-1.59-2.41-2.72.94-3.15 2.22.28 2.35 1.58 2.4Zm9.61.39c1.32.05 2.75-.94 3.18-2.23.44-1.29-.28-2.37-1.6-2.42s-2.75.95-3.18 2.23.28 2.36 1.6 2.42Zm9.71.4c1.34.05 2.78-.95 3.22-2.24s-.29-2.38-1.62-2.43-2.78.95-3.22 2.24.28 2.38 1.62 2.43Zm9.82.4c1.35.05 2.81-.95 3.26-2.25s-.29-2.4-1.64-2.45-2.81.96-3.25 2.26.29 2.39 1.64 2.45Zm9.93.4c1.37.06 2.84-.96 3.29-2.27s-.29-2.41-1.66-2.46-2.84.96-3.29 2.27.29 2.41 1.65 2.46Zm10.05.41c1.38.06 2.88-.96 3.33-2.28.46-1.32-.3-2.42-1.68-2.48s-2.87.97-3.32 2.28.3 2.42 1.67 2.47Zm10.16.41c1.4.06 2.91-.97 3.37-2.29s-.3-2.44-1.7-2.49-2.9.97-3.36 2.29.3 2.43 1.69 2.49Zm10.27.42c1.42.06 2.94-.97 3.41-2.3s-.3-2.45-1.72-2.51-2.93.98-3.4 2.3.3 2.45 1.71 2.5Zm10.39.42c1.43.06 2.97-.98 3.45-2.32s-.31-2.47-1.74-2.52-2.97.98-3.44 2.32.31 2.46 1.73 2.52Zm10.52.43c1.45.06 3.01-.98 3.48-2.33s-.31-2.48-1.76-2.54-3 .99-3.48 2.33.31 2.48 1.75 2.53Zm10.64.43c1.47.06 3.04-.99 3.52-2.34s-.31-2.5-1.78-2.55-3.04.99-3.52 2.34.32 2.49 1.78 2.55Zm10.76.44c1.48.06 3.08-.99 3.57-2.35s-.32-2.51-1.8-2.57-3.07 1-3.56 2.36.32 2.5 1.8 2.56Zm10.89.44c1.5.06 3.11-1 3.61-2.37s-.32-2.53-1.83-2.58-3.11 1-3.6 2.37.32 2.52 1.82 2.58Zm11.02.45c1.52.06 3.15-1 3.65-2.38s-.33-2.54-1.85-2.6-3.15 1.01-3.64 2.38.33 2.53 1.84 2.6Zm11.15.45c1.54.06 3.19-1.01 3.69-2.39s-.33-2.56-1.87-2.61-3.18 1.01-3.69 2.4.33 2.55 1.86 2.61Zm-194.39 1.3c1.23.06 2.57-.9 2.98-2.14s-.26-2.29-1.5-2.35-2.56.91-2.97 2.15.26 2.29 1.49 2.34Zm9.06.42c1.25.06 2.59-.91 3.01-2.15s-.26-2.3-1.51-2.36-2.59.91-3 2.16.26 2.3 1.51 2.36Zm9.17.42c1.26.06 2.62-.91 3.04-2.17s-.27-2.32-1.53-2.37-2.62.92-3.03 2.17.26 2.31 1.52 2.37Zm9.26.43c1.27.06 2.65-.92 3.07-2.18s-.27-2.33-1.55-2.38-2.65.92-3.07 2.18.27 2.32 1.54 2.38Zm9.36.43c1.29.06 2.68-.92 3.11-2.19s-.27-2.34-1.56-2.4-2.68.92-3.1 2.19.27 2.34 1.56 2.4Zm9.47.44c1.3.06 2.71-.92 3.14-2.2s-.28-2.36-1.58-2.41-2.71.93-3.14 2.2.28 2.35 1.58 2.41Zm9.57.44c1.32.06 2.74-.93 3.17-2.21s-.28-2.37-1.6-2.43-2.74.93-3.17 2.21.28 2.36 1.59 2.42Zm9.68.44c1.33.06 2.77-.93 3.21-2.22s-.28-2.38-1.62-2.44-2.77.94-3.21 2.22.28 2.38 1.61 2.44Zm9.79.46c1.35.06 2.8-.94 3.25-2.23s-.29-2.4-1.64-2.45-2.8.94-3.24 2.24.29 2.39 1.63 2.45Zm9.89.45c1.36.06 2.83-.94 3.28-2.25s-.29-2.41-1.66-2.47-2.83.95-3.27 2.25.29 2.4 1.65 2.47Zm10.01.46c1.38.06 2.86-.95 3.32-2.26s-.3-2.42-1.68-2.48-2.86.95-3.31 2.26.29 2.42 1.67 2.48Zm10.13.47c1.39.06 2.9-.95 3.36-2.27s-.3-2.44-1.7-2.5-2.89.96-3.35 2.27.3 2.43 1.69 2.49Zm10.23.47c1.41.07 2.93-.96 3.4-2.28s-.3-2.45-1.72-2.51-2.92.96-3.39 2.28.3 2.44 1.71 2.51Zm10.36.48c1.43.07 2.96-.96 3.43-2.29s-.31-2.46-1.74-2.53-2.96.97-3.43 2.3.31 2.46 1.73 2.52Zm10.48.48c1.44.07 3-.97 3.47-2.31s-.31-2.48-1.75-2.54-2.99.97-3.46 2.31.31 2.47 1.75 2.54Zm10.6.49c1.46.07 3.03-.97 3.51-2.32s-.31-2.49-1.78-2.56-3.03.98-3.5 2.32.31 2.49 1.77 2.55Zm10.72.5c1.48.07 3.07-.98 3.55-2.33s-.32-2.51-1.8-2.57-3.06.98-3.55 2.33.32 2.5 1.79 2.57Zm10.85.5c1.49.07 3.1-.98 3.59-2.34s-.32-2.52-1.82-2.59-3.1.99-3.59 2.35.32 2.52 1.81 2.59Zm10.98.5c1.51.07 3.14-.99 3.64-2.36s-.33-2.54-1.84-2.6-3.13.99-3.63 2.36.33 2.53 1.83 2.6Zm11.1.51c1.53.07 3.18-.99 3.68-2.37.5-1.38-.33-2.55-1.86-2.62s-3.17 1-3.67 2.37.33 2.55 1.86 2.62Zm-193.7.26c1.23.06 2.56-.89 2.97-2.12s-.26-2.29-1.49-2.35-2.55.89-2.96 2.13.26 2.28 1.48 2.35Zm9.04.46c1.24.06 2.59-.89 3-2.14s-.26-2.3-1.51-2.36-2.58.9-2.99 2.14.26 2.3 1.5 2.36Zm9.13.47c1.26.06 2.61-.9 3.03-2.15s-.27-2.32-1.52-2.38-2.61.9-3.02 2.15.26 2.31 1.52 2.37Zm9.23.48c1.27.07 2.64-.9 3.06-2.16s-.27-2.33-1.54-2.39-2.64.9-3.06 2.16.27 2.32 1.53 2.39Zm9.33.48c1.28.07 2.67-.9 3.1-2.17s-.27-2.34-1.56-2.4-2.67.91-3.09 2.17.27 2.34 1.55 2.4Zm9.44.49c1.3.07 2.7-.91 3.13-2.18s-.28-2.35-1.58-2.42-2.7.91-3.13 2.18.28 2.35 1.57 2.41Zm9.54.49c1.31.07 2.73-.91 3.16-2.19s-.28-2.37-1.59-2.43-2.73.92-3.16 2.19.28 2.36 1.59 2.43Zm9.64.5c1.33.07 2.76-.92 3.2-2.2s-.28-2.38-1.61-2.44-2.76.92-3.19 2.2.28 2.37 1.61 2.44Zm9.76.5c1.34.07 2.79-.92 3.23-2.21s-.29-2.39-1.63-2.46-2.79.93-3.23 2.22.29 2.39 1.63 2.46Zm9.86.51c1.36.07 2.82-.93 3.27-2.22s-.29-2.41-1.65-2.47-2.82.93-3.26 2.23.29 2.4 1.64 2.47Zm9.97.51c1.37.07 2.85-.93 3.31-2.24s-.29-2.42-1.67-2.49-2.85.94-3.3 2.24.29 2.41 1.66 2.49Zm10.09.52c1.39.07 2.89-.93 3.35-2.25s-.3-2.43-1.69-2.5-2.88.94-3.34 2.25.3 2.43 1.68 2.5Zm10.2.53c1.41.07 2.92-.94 3.38-2.26.46-1.32-.3-2.45-1.71-2.52s-2.91.94-3.38 2.26.3 2.44 1.7 2.51Zm10.32.53c1.42.07 2.95-.94 3.42-2.27s-.31-2.46-1.73-2.53-2.95.95-3.41 2.27.3 2.46 1.72 2.53Zm10.44.54c1.44.07 2.99-.95 3.46-2.28s-.31-2.48-1.75-2.55-2.98.95-3.45 2.29.31 2.47 1.74 2.55Zm10.56.55c1.45.08 3.02-.95 3.5-2.3s-.31-2.49-1.77-2.56-3.02.96-3.49 2.3.31 2.49 1.76 2.56Zm10.68.55c1.47.08 3.06-.96 3.54-2.31s-.32-2.51-1.79-2.58-3.05.96-3.53 2.31.32 2.5 1.78 2.58Zm10.81.55c1.49.08 3.09-.96 3.58-2.32s-.32-2.52-1.81-2.59-3.09.97-3.57 2.32.32 2.52 1.81 2.59Zm10.94.57c1.51.08 3.13-.97 3.62-2.33s-.33-2.54-1.83-2.61-3.12.97-3.62 2.34.33 2.53 1.83 2.61Zm11.07.57c1.52.08 3.17-.97 3.67-2.35s-.33-2.55-1.86-2.63-3.16.98-3.66 2.35.33 2.55 1.85 2.62ZM91 177.95c1.25.07 2.6-.88 3.02-2.13s-.27-2.31-1.52-2.38-2.6.89-3.01 2.13.26 2.31 1.51 2.38Zm9.2.52c1.27.07 2.63-.88 3.05-2.14s-.27-2.33-1.54-2.39-2.63.89-3.05 2.14.27 2.32 1.53 2.39Zm9.3.53c1.28.07 2.66-.89 3.09-2.15s-.27-2.34-1.55-2.41-2.66.89-3.08 2.15.27 2.33 1.55 2.41Zm9.41.54c1.29.07 2.69-.89 3.12-2.16s-.28-2.35-1.57-2.42-2.69.9-3.11 2.16.27 2.35 1.57 2.42Zm9.5.54c1.31.07 2.72-.9 3.15-2.17s-.28-2.36-1.59-2.44-2.72.9-3.15 2.17.28 2.36 1.58 2.43Zm9.61.55c1.32.08 2.75-.9 3.19-2.18s-.28-2.38-1.61-2.45-2.75.91-3.18 2.18.28 2.37 1.6 2.45Zm9.72.56c1.34.08 2.78-.91 3.22-2.19s-.29-2.39-1.62-2.46-2.78.91-3.22 2.19.29 2.39 1.62 2.46Zm9.83.56c1.35.08 2.81-.91 3.26-2.2s-.29-2.4-1.64-2.48-2.81.91-3.25 2.21.29 2.4 1.64 2.48Zm9.94.56c1.37.08 2.84-.91 3.3-2.21s-.29-2.42-1.66-2.49-2.84.92-3.29 2.22.29 2.41 1.66 2.49Zm10.05.58c1.38.08 2.88-.92 3.33-2.23s-.3-2.43-1.68-2.51-2.87.92-3.33 2.23.3 2.43 1.68 2.51Zm10.17.58c1.4.08 2.91-.92 3.37-2.24s-.3-2.45-1.7-2.52-2.9.93-3.36 2.24.3 2.44 1.69 2.52Zm10.28.58c1.42.08 2.94-.93 3.41-2.25s-.31-2.46-1.72-2.54-2.94.93-3.4 2.25.3 2.45 1.71 2.54Zm10.4.6c1.43.08 2.97-.93 3.45-2.26s-.31-2.47-1.74-2.55-2.97.94-3.44 2.26.31 2.47 1.74 2.55Zm10.52.6c1.45.08 3.01-.94 3.49-2.27s-.31-2.49-1.76-2.57-3 .94-3.48 2.28.31 2.48 1.76 2.57Zm10.65.6c1.47.08 3.04-.94 3.53-2.29s-.32-2.5-1.78-2.58-3.04.95-3.52 2.29.32 2.5 1.78 2.58Zm10.77.62c1.48.08 3.08-.94 3.57-2.3.49-1.35-.32-2.52-1.81-2.6s-3.08.95-3.56 2.3.32 2.51 1.8 2.6Zm10.89.62c1.5.09 3.12-.95 3.61-2.31s-.32-2.53-1.83-2.62-3.11.95-3.6 2.31.32 2.53 1.82 2.61Zm11.03.63c1.52.09 3.15-.95 3.65-2.32s-.33-2.55-1.85-2.63-3.15.96-3.65 2.33.33 2.54 1.84 2.63Zm-174.29-.69c1.25.08 2.6-.87 3.01-2.11s-.26-2.31-1.51-2.39-2.59.87-3 2.11.26 2.31 1.51 2.38Zm9.17.58c1.26.08 2.62-.87 3.04-2.12s-.27-2.32-1.53-2.4-2.62.87-3.04 2.12.26 2.32 1.52 2.4Zm9.27.58c1.27.08 2.65-.87 3.07-2.13.42-1.26-.27-2.34-1.55-2.41s-2.65.88-3.07 2.13.27 2.33 1.54 2.41Zm9.37.58c1.29.08 2.68-.88 3.11-2.14s-.27-2.35-1.56-2.43-2.68.88-3.1 2.14.27 2.34 1.56 2.42Zm9.47.59c1.3.08 2.71-.88 3.14-2.15s-.28-2.36-1.58-2.44-2.71.89-3.14 2.15.28 2.36 1.58 2.44Zm9.58.6c1.32.08 2.74-.88 3.18-2.16s-.28-2.38-1.6-2.45-2.74.89-3.17 2.16.28 2.37 1.6 2.45Zm9.68.61c1.33.08 2.77-.89 3.21-2.17s-.28-2.39-1.62-2.47-2.77.89-3.21 2.17.28 2.38 1.61 2.47Zm9.79.61c1.35.08 2.8-.89 3.25-2.18s-.29-2.4-1.64-2.48-2.8.9-3.24 2.19.29 2.4 1.63 2.48Zm9.91.62c1.36.09 2.83-.9 3.29-2.19s-.29-2.42-1.66-2.5-2.83.9-3.28 2.2.29 2.41 1.65 2.5Zm10.01.63c1.38.09 2.87-.9 3.32-2.2s-.3-2.43-1.68-2.51-2.86.91-3.31 2.21.3 2.42 1.67 2.51Zm10.13.63c1.4.09 2.9-.9 3.36-2.22s-.3-2.44-1.7-2.53-2.89.91-3.35 2.22.3 2.44 1.69 2.53Zm10.25.64c1.41.09 2.93-.91 3.4-2.23s-.3-2.46-1.72-2.54-2.93.91-3.39 2.23.3 2.45 1.71 2.54Zm10.36.65c1.43.09 2.96-.91 3.43-2.24s-.31-2.47-1.74-2.56-2.96.92-3.43 2.24.31 2.47 1.73 2.56Zm10.49.65c1.44.09 3-.92 3.47-2.25s-.31-2.49-1.76-2.57-2.99.92-3.47 2.25.31 2.48 1.75 2.57Zm10.6.67c1.46.09 3.03-.92 3.51-2.26s-.31-2.5-1.78-2.59-3.03.93-3.51 2.27.31 2.5 1.77 2.59Zm10.74.67c1.48.09 3.07-.93 3.56-2.28s-.32-2.52-1.8-2.61-3.06.93-3.55 2.28.32 2.51 1.79 2.6Zm10.85.68c1.5.09 3.1-.93 3.6-2.29s-.32-2.53-1.82-2.62-3.1.94-3.59 2.29.32 2.53 1.81 2.62Zm10.99.68c1.51.09 3.14-.93 3.64-2.3s-.33-2.55-1.84-2.64-3.14.94-3.63 2.3.33 2.54 1.84 2.63Zm-173.68-1.61c1.24.08 2.59-.85 3-2.09s-.26-2.31-1.51-2.39-2.58.86-2.99 2.09.26 2.3 1.5 2.39Zm9.14.62c1.26.09 2.61-.85 3.03-2.1s-.27-2.32-1.52-2.4-2.61.86-3.03 2.1.26 2.32 1.52 2.4Zm9.24.63c1.27.09 2.64-.86 3.06-2.11s-.27-2.33-1.54-2.42-2.64.86-3.06 2.11.27 2.33 1.54 2.42Zm9.33.63c1.28.09 2.67-.86 3.1-2.12s-.27-2.35-1.56-2.43-2.67.87-3.09 2.12.27 2.34 1.56 2.43Zm9.45.65c1.3.09 2.7-.87 3.13-2.13s-.28-2.36-1.58-2.45-2.7.87-3.13 2.13.27 2.35 1.57 2.44Zm9.54.65c1.31.09 2.73-.87 3.17-2.14s-.28-2.37-1.59-2.46-2.73.87-3.16 2.14.28 2.37 1.59 2.46Zm9.65.65c1.33.09 2.76-.87 3.2-2.15s-.28-2.39-1.61-2.47-2.76.88-3.2 2.15.28 2.38 1.61 2.47Zm9.76.66c1.34.09 2.79-.88 3.24-2.16s-.29-2.4-1.63-2.49-2.79.88-3.23 2.16.29 2.39 1.63 2.49Zm9.87.68c1.36.09 2.82-.88 3.27-2.17s-.29-2.41-1.65-2.5-2.82.89-3.27 2.18c-.45 1.29.29 2.41 1.64 2.5Zm9.98.67c1.37.09 2.86-.88 3.31-2.18s-.3-2.43-1.67-2.52-2.85.89-3.3 2.19c-.45 1.3.29 2.42 1.66 2.52Zm10.09.69c1.39.09 2.89-.89 3.35-2.2s-.3-2.44-1.69-2.53-2.88.89-3.34 2.2.3 2.44 1.68 2.53Zm10.21.69c1.41.1 2.92-.89 3.39-2.21s-.3-2.46-1.71-2.55-2.92.9-3.38 2.21.3 2.45 1.7 2.55Zm10.33.71c1.42.1 2.95-.9 3.42-2.22s-.3-2.47-1.73-2.56-2.95.9-3.42 2.22.31 2.46 1.72 2.56Zm10.45.71c1.44.1 2.99-.9 3.46-2.23s-.31-2.49-1.75-2.58-2.98.91-3.46 2.23c-.47 1.33.31 2.48 1.74 2.58Zm10.56.72c1.45.1 3.02-.9 3.5-2.24s-.31-2.5-1.77-2.6-3.02.91-3.49 2.24c-.48 1.33.31 2.49 1.76 2.59Zm10.7.72c1.47.1 3.06-.91 3.54-2.25s-.32-2.51-1.79-2.61-3.05.91-3.54 2.26.32 2.51 1.78 2.61Zm10.81.74c1.49.1 3.09-.91 3.58-2.26.49-1.35-.32-2.53-1.81-2.63s-3.09.92-3.58 2.27.32 2.52 1.81 2.62Zm10.95.74c1.51.1 3.13-.92 3.63-2.28s-.33-2.54-1.84-2.64-3.13.92-3.62 2.28.33 2.54 1.83 2.64Zm11.07.76c1.53.1 3.17-.92 3.67-2.29s-.33-2.56-1.86-2.66-3.16.93-3.66 2.29.33 2.55 1.85 2.66ZM64.03 203.8c1.21.09 2.52-.83 2.93-2.05s-.26-2.28-1.47-2.37-2.52.83-2.92 2.05.25 2.28 1.46 2.37Zm8.91.66c1.22.09 2.55-.83 2.96-2.06s-.26-2.29-1.49-2.38-2.55.84-2.95 2.06.25 2.29 1.48 2.38Zm9.01.66c1.24.09 2.58-.84 2.99-2.07s-.26-2.31-1.5-2.39-2.57.84-2.98 2.07.26 2.3 1.5 2.39Zm9.11.67c1.25.09 2.61-.84 3.02-2.08s-.26-2.32-1.52-2.41-2.6.84-3.02 2.08.26 2.31 1.51 2.41Zm9.21.67c1.27.09 2.63-.84 3.05-2.09s-.27-2.33-1.54-2.42-2.63.85-3.05 2.09.27 2.33 1.53 2.42Zm9.3.69c1.28.09 2.66-.85 3.09-2.1s-.27-2.35-1.55-2.44-2.66.85-3.08 2.1.27 2.34 1.55 2.43Zm9.41.69c1.29.1 2.69-.85 3.12-2.11s-.27-2.36-1.57-2.45-2.69.85-3.12 2.11.27 2.35 1.57 2.45Zm9.51.7c1.31.1 2.72-.85 3.15-2.12s-.28-2.37-1.59-2.46-2.72.86-3.15 2.12.28 2.37 1.58 2.46Zm9.62.7c1.32.1 2.75-.86 3.19-2.13s-.28-2.39-1.61-2.48-2.75.86-3.19 2.13.28 2.38 1.6 2.48Zm9.73.72c1.34.1 2.78-.86 3.23-2.14s-.29-2.4-1.63-2.49-2.78.87-3.22 2.14.29 2.39 1.62 2.49Zm9.83.72c1.35.1 2.82-.86 3.26-2.15s-.29-2.41-1.65-2.51-2.81.87-3.25 2.15.29 2.41 1.64 2.51Zm9.95.73c1.37.1 2.85-.87 3.3-2.16s-.29-2.43-1.67-2.52-2.84.87-3.29 2.17.29 2.42 1.66 2.52Zm10.05.74c1.39.1 2.88-.87 3.34-2.17s-.3-2.44-1.68-2.54-2.87.88-3.33 2.18.3 2.43 1.68 2.54Zm10.18.75c1.4.1 2.91-.88 3.37-2.19s-.3-2.45-1.7-2.55-2.91.88-3.37 2.19.3 2.45 1.7 2.55Zm10.29.75c1.42.1 2.94-.88 3.41-2.2s-.3-2.47-1.72-2.57-2.94.88-3.4 2.2.3 2.46 1.72 2.57Zm10.41.77c1.43.11 2.98-.88 3.45-2.21s-.31-2.48-1.74-2.58-2.97.89-3.44 2.21.31 2.48 1.74 2.58Zm10.53.77c1.45.11 3.01-.89 3.49-2.22s-.31-2.5-1.76-2.6-3.01.89-3.48 2.22.31 2.49 1.76 2.6Zm10.65.78c1.47.11 3.05-.89 3.53-2.23.48-1.34-.32-2.51-1.79-2.62s-3.04.9-3.52 2.23.32 2.51 1.78 2.61Zm10.78.8c1.48.11 3.08-.89 3.57-2.24s-.32-2.53-1.81-2.63-3.08.9-3.56 2.24.32 2.52 1.8 2.63Zm10.9.8c1.5.11 3.12-.9 3.61-2.25s-.32-2.54-1.83-2.65-3.11.9-3.61 2.26.32 2.54 1.82 2.65Zm11.04.81c1.52.11 3.16-.9 3.66-2.27s-.33-2.56-1.85-2.67-3.15.91-3.65 2.27.33 2.55 1.84 2.66Zm11.16.82c1.54.11 3.19-.91 3.7-2.28s-.33-2.57-1.87-2.68-3.19.91-3.69 2.28.33 2.57 1.87 2.68Zm-212.52-6.49c1.21.1 2.52-.81 2.92-2.03s-.25-2.28-1.47-2.37-2.51.82-2.91 2.03.25 2.28 1.46 2.37Zm8.89.7c1.22.1 2.54-.82 2.95-2.04s-.26-2.29-1.48-2.39-2.54.82-2.94 2.04.25 2.29 1.47 2.38Zm8.98.71c1.23.1 2.57-.82 2.98-2.05s-.26-2.31-1.5-2.4-2.57.83-2.97 2.05.26 2.3 1.49 2.4Zm9.07.71c1.25.1 2.6-.82 3.01-2.06s-.26-2.32-1.51-2.41-2.59.83-3.01 2.06.26 2.31 1.51 2.41Zm9.18.73c1.26.1 2.63-.83 3.04-2.07s-.27-2.33-1.53-2.43-2.62.83-3.04 2.07.27 2.33 1.53 2.43Zm9.27.73c1.27.1 2.65-.83 3.08-2.08s-.27-2.34-1.55-2.44-2.65.84-3.07 2.08.27 2.34 1.54 2.44Zm9.38.74c1.29.1 2.68-.83 3.11-2.09s-.27-2.36-1.56-2.45-2.68.84-3.11 2.09.27 2.35 1.56 2.45Zm9.48.75c1.3.1 2.71-.84 3.14-2.1s-.28-2.37-1.58-2.47-2.71.84-3.14 2.1.28 2.36 1.58 2.47Zm9.58.75c1.32.1 2.74-.84 3.18-2.11.44-1.27-.28-2.38-1.6-2.48s-2.74.85-3.17 2.11.28 2.38 1.6 2.48Zm9.69.77c1.33.11 2.77-.84 3.22-2.12s-.28-2.4-1.62-2.5-2.77.85-3.21 2.12.28 2.39 1.61 2.5Zm9.8.77c1.35.11 2.81-.85 3.25-2.13s-.29-2.41-1.64-2.51-2.8.85-3.24 2.13.29 2.4 1.63 2.51Zm9.91.79c1.36.11 2.84-.85 3.29-2.14s-.29-2.42-1.66-2.53-2.83.86-3.28 2.14c-.45 1.29.29 2.42 1.65 2.53Zm10.03.79c1.38.11 2.87-.86 3.32-2.15s-.3-2.44-1.68-2.54-2.86.86-3.32 2.16.29 2.43 1.67 2.54Zm10.13.8c1.4.11 2.9-.86 3.36-2.16s-.3-2.45-1.7-2.56-2.9.86-3.35 2.17.3 2.45 1.69 2.56Zm10.26.81c1.41.11 2.93-.86 3.4-2.18s-.3-2.47-1.72-2.57-2.93.87-3.39 2.18.3 2.46 1.71 2.57Zm10.37.82c1.43.11 2.97-.87 3.44-2.19s-.31-2.48-1.74-2.59-2.96.87-3.43 2.19.31 2.47 1.73 2.59Zm10.49.82c1.44.11 3-.87 3.48-2.2s-.31-2.49-1.76-2.61-3 .88-3.47 2.2.31 2.49 1.75 2.6Zm10.61.84c1.46.12 3.04-.87 3.52-2.21s-.31-2.51-1.78-2.62-3.03.88-3.51 2.21.31 2.5 1.77 2.62Zm10.74.85c1.48.12 3.07-.88 3.56-2.22s-.32-2.52-1.8-2.64-3.07.88-3.55 2.22.32 2.52 1.79 2.64Zm10.87.86c1.5.12 3.11-.88 3.6-2.23s-.32-2.54-1.82-2.65-3.1.89-3.59 2.23.32 2.53 1.81 2.65Zm10.99.86c1.51.12 3.14-.88 3.64-2.24s-.33-2.56-1.84-2.67-3.14.89-3.63 2.25.33 2.55 1.84 2.67Zm11.13.88c1.53.12 3.18-.89 3.69-2.26s-.33-2.57-1.87-2.69-3.18.89-3.68 2.26.33 2.56 1.86 2.69Zm-211.78-7.61c1.2.1 2.51-.8 2.91-2.01s-.25-2.28-1.46-2.38-2.5.8-2.9 2.02.25 2.27 1.45 2.38Zm8.86.75c1.22.1 2.53-.8 2.94-2.02s-.26-2.29-1.48-2.39-2.53.81-2.93 2.02.25 2.29 1.47 2.39Zm8.95.76c1.23.1 2.56-.81 2.97-2.03s-.26-2.3-1.49-2.4-2.56.81-2.96 2.03.26 2.3 1.49 2.4Zm9.04.76c1.24.11 2.59-.81 3-2.04s-.26-2.32-1.51-2.42-2.58.81-3 2.04.26 2.31 1.5 2.42Zm9.15.77c1.26.11 2.62-.81 3.03-2.05s-.27-2.33-1.53-2.43-2.61.82-3.03 2.05c-.42 1.24.27 2.32 1.52 2.43Zm9.24.78c1.27.11 2.64-.82 3.07-2.06s-.27-2.34-1.54-2.45-2.64.82-3.06 2.06.27 2.34 1.54 2.44Zm9.35.79c1.28.11 2.67-.82 3.1-2.07s-.27-2.35-1.56-2.46-2.67.82-3.1 2.07.27 2.35 1.56 2.46Zm9.44.8c1.3.11 2.7-.82 3.13-2.08s-.28-2.37-1.58-2.47-2.7.83-3.13 2.08.28 2.36 1.57 2.47Zm9.55.81c1.31.11 2.73-.83 3.17-2.09s-.28-2.38-1.6-2.49-2.73.83-3.16 2.09.28 2.38 1.59 2.49Zm9.66.81c1.33.11 2.76-.83 3.2-2.1s-.28-2.39-1.62-2.5-2.76.83-3.2 2.1.28 2.39 1.61 2.5Zm9.77.83c1.34.11 2.8-.83 3.24-2.11s-.29-2.41-1.63-2.52-2.79.84-3.23 2.11.29 2.4 1.63 2.52Zm9.87.83c1.36.11 2.83-.84 3.28-2.12s-.29-2.42-1.65-2.53-2.82.84-3.27 2.12c-.45 1.28.29 2.42 1.65 2.53Zm9.99.84c1.38.12 2.86-.84 3.31-2.13s-.29-2.44-1.67-2.55-2.85.84-3.3 2.13.29 2.43 1.66 2.55Zm10.1.85c1.39.12 2.89-.84 3.35-2.14s-.3-2.45-1.69-2.56-2.89.85-3.34 2.15.3 2.44 1.68 2.56Zm10.22.87c1.41.12 2.92-.85 3.39-2.15s-.3-2.46-1.71-2.58-2.92.85-3.38 2.16.3 2.46 1.7 2.58Zm10.33.87c1.42.12 2.96-.85 3.42-2.16s-.3-2.48-1.73-2.59-2.95.85-3.42 2.17.3 2.47 1.72 2.59Zm10.45.88c1.44.12 2.99-.85 3.46-2.18s-.31-2.49-1.75-2.61-2.99.86-3.46 2.18.31 2.49 1.74 2.61Zm10.58.89c1.46.12 3.02-.86 3.5-2.19s-.31-2.51-1.77-2.63-3.02.86-3.5 2.19.31 2.5 1.76 2.62Zm10.7.91c1.47.12 3.06-.86 3.55-2.2s-.32-2.52-1.79-2.64-3.06.86-3.54 2.2.32 2.52 1.79 2.64Zm10.82.91c1.49.13 3.1-.86 3.59-2.21s-.32-2.54-1.81-2.66-3.09.87-3.58 2.21.32 2.53 1.81 2.66Zm10.96.93c1.51.13 3.13-.87 3.63-2.22s-.33-2.55-1.84-2.68-3.13.87-3.62 2.22.32 2.55 1.83 2.67Zm11.08.93c1.53.13 3.17-.87 3.67-2.23s-.33-2.57-1.86-2.69-3.16.88-3.66 2.23.33 2.56 1.85 2.69Zm11.22.95c1.54.13 3.21-.87 3.72-2.24s-.34-2.58-1.88-2.71-3.2.88-3.71 2.25.33 2.58 1.88 2.71Zm-222.24-9.67c1.2.11 2.5-.78 2.9-1.99s-.25-2.28-1.46-2.38-2.5.79-2.89 2 .25 2.27 1.45 2.38Zm8.82.8c1.21.11 2.53-.79 2.93-2s-.26-2.29-1.47-2.4-2.52.79-2.92 2.01.25 2.28 1.46 2.39Zm8.92.8c1.23.11 2.55-.79 2.96-2.01s-.26-2.3-1.49-2.41-2.55.8-2.95 2.02.26 2.3 1.48 2.41Zm9.02.81c1.24.11 2.58-.79 2.99-2.02s-.26-2.31-1.5-2.42-2.58.8-2.99 2.03.26 2.31 1.5 2.42Zm9.11.82c1.25.11 2.61-.8 3.02-2.03s-.27-2.33-1.52-2.44-2.61.8-3.02 2.03.26 2.32 1.52 2.43Zm9.21.83c1.27.11 2.64-.8 3.06-2.04s-.27-2.34-1.54-2.45-2.63.81-3.05 2.04.27 2.33 1.53 2.45Zm9.31.83c1.28.12 2.66-.8 3.09-2.05s-.27-2.35-1.55-2.46-2.66.81-3.09 2.05.27 2.35 1.55 2.46Zm9.42.85c1.29.12 2.69-.81 3.12-2.06s-.28-2.37-1.57-2.48-2.69.81-3.12 2.06.27 2.36 1.57 2.48Zm9.51.86c1.31.12 2.72-.81 3.16-2.07s-.28-2.38-1.59-2.49-2.72.81-3.15 2.07.28 2.37 1.59 2.49Zm9.63.86c1.33.12 2.76-.81 3.19-2.08s-.28-2.39-1.61-2.51-2.75.82-3.19 2.08.28 2.39 1.6 2.51Zm9.73.88c1.34.12 2.79-.82 3.23-2.09s-.29-2.41-1.63-2.52-2.78.82-3.22 2.09.28 2.4 1.62 2.52Zm9.84.88c1.35.12 2.82-.82 3.26-2.1s-.29-2.42-1.65-2.54-2.81.82-3.26 2.1.29 2.41 1.64 2.54Zm9.95.9c1.37.12 2.85-.82 3.3-2.11s-.29-2.43-1.67-2.55-2.84.83-3.29 2.11.29 2.43 1.66 2.55Zm10.07.9c1.39.12 2.88-.83 3.34-2.12s-.3-2.45-1.69-2.57-2.88.83-3.33 2.13.3 2.44 1.68 2.57Zm10.18.92c1.4.13 2.91-.83 3.37-2.13s-.3-2.46-1.7-2.58-2.91.83-3.37 2.14.3 2.46 1.7 2.58Zm10.3.92c1.42.13 2.95-.83 3.41-2.14s-.3-2.48-1.72-2.6-2.94.84-3.41 2.15.3 2.47 1.72 2.6Zm10.41.94c1.43.13 2.98-.84 3.45-2.15s-.31-2.49-1.74-2.62-2.97.84-3.45 2.16.31 2.49 1.74 2.61Zm10.54.94c1.45.13 3.01-.84 3.49-2.16s-.31-2.51-1.77-2.63-3.01.84-3.48 2.17.31 2.5 1.76 2.63Zm10.66.96c1.47.13 3.05-.84 3.53-2.18s-.32-2.52-1.79-2.65-3.04.85-3.53 2.18.32 2.51 1.78 2.65Zm10.79.97c1.49.13 3.08-.85 3.57-2.19s-.32-2.54-1.81-2.67-3.08.85-3.57 2.19.32 2.53 1.8 2.66Zm10.91.98c1.5.14 3.12-.85 3.62-2.2s-.32-2.55-1.83-2.68-3.12.85-3.61 2.2.32 2.54 1.82 2.68Zm11.04 1c1.52.14 3.16-.85 3.66-2.21s-.33-2.57-1.85-2.7-3.15.86-3.65 2.21.33 2.56 1.85 2.7Zm11.18 1c1.54.14 3.2-.86 3.7-2.22s-.33-2.58-1.88-2.72-3.19.86-3.69 2.22.33 2.58 1.87 2.71ZM52.34 239.26c1.2.11 2.49-.77 2.89-1.98s-.25-2.28-1.45-2.39-2.49.78-2.88 1.98.25 2.27 1.44 2.38Zm8.79.83c1.21.12 2.52-.77 2.92-1.99s-.25-2.29-1.47-2.4-2.51.78-2.91 1.99.25 2.28 1.46 2.4Zm8.89.85c1.22.12 2.54-.78 2.95-2s-.26-2.3-1.48-2.41-2.54.78-2.95 2 .26 2.29 1.48 2.41Zm8.99.86c1.24.12 2.57-.78 2.98-2s-.26-2.31-1.5-2.43-2.57.78-2.98 2.01.26 2.31 1.49 2.43Zm9.08.87c1.25.12 2.6-.78 3.01-2.01s-.26-2.33-1.51-2.44-2.6.79-3.01 2.02.26 2.32 1.51 2.44Zm9.18.87c1.26.12 2.63-.79 3.05-2.02s-.27-2.34-1.53-2.46-2.62.79-3.04 2.03.27 2.33 1.53 2.45Zm9.28.89c1.28.12 2.65-.79 3.08-2.03.42-1.25-.27-2.35-1.55-2.47s-2.65.79-3.07 2.03.27 2.35 1.54 2.47Zm9.38.89c1.29.12 2.68-.79 3.11-2.04s-.27-2.36-1.57-2.48-2.68.8-3.11 2.04.27 2.36 1.56 2.48Zm9.49.91c1.3.12 2.71-.79 3.15-2.05s-.28-2.38-1.58-2.5-2.71.8-3.14 2.05.28 2.37 1.58 2.5Zm9.59.91c1.32.13 2.75-.8 3.18-2.06s-.28-2.39-1.6-2.51-2.74.8-3.17 2.06.28 2.39 1.6 2.51Zm9.69.93c1.33.13 2.78-.8 3.22-2.07s-.29-2.4-1.62-2.53-2.77.81-3.21 2.07.28 2.4 1.61 2.53Zm9.81.93c1.35.13 2.81-.8 3.25-2.08s-.29-2.42-1.64-2.54-2.8.81-3.25 2.08.29 2.41 1.63 2.54Zm9.92.95c1.37.13 2.84-.81 3.29-2.09s-.29-2.43-1.66-2.56-2.83.81-3.28 2.09.29 2.43 1.65 2.56Zm10.03.95c1.38.13 2.87-.81 3.33-2.1s-.3-2.45-1.68-2.57-2.86.81-3.32 2.1.29 2.44 1.67 2.57Zm10.14.97c1.4.13 2.9-.81 3.36-2.11s-.3-2.46-1.7-2.59-2.9.82-3.36 2.11.3 2.45 1.69 2.59Zm10.26.98c1.41.13 2.93-.82 3.4-2.12s-.3-2.47-1.72-2.61-2.93.82-3.39 2.12.3 2.47 1.71 2.6Zm10.38.99c1.43.14 2.97-.82 3.44-2.13s-.31-2.49-1.74-2.62-2.96.82-3.43 2.14.31 2.48 1.73 2.62Zm10.5 1c1.45.14 3-.82 3.48-2.14s-.31-2.5-1.76-2.64-3 .83-3.47 2.15.31 2.5 1.75 2.64Zm10.62 1.01c1.46.14 3.04-.82 3.52-2.15s-.31-2.52-1.78-2.65-3.03.83-3.51 2.16.31 2.51 1.77 2.65Zm10.75 1.03c1.48.14 3.07-.83 3.56-2.16s-.32-2.53-1.8-2.67-3.07.83-3.55 2.17.32 2.53 1.79 2.67Zm10.87 1.04c1.5.14 3.11-.83 3.6-2.18s-.32-2.55-1.82-2.69-3.1.84-3.59 2.18.32 2.54 1.81 2.68Zm11 1.05c1.52.14 3.15-.83 3.64-2.19s-.33-2.56-1.85-2.7-3.14.84-3.64 2.19.33 2.56 1.84 2.7Zm11.14 1.06c1.53.15 3.18-.84 3.69-2.2s-.33-2.58-1.87-2.72-3.18.84-3.68 2.2.33 2.57 1.86 2.72ZM49.43 248.05c1.19.12 2.48-.76 2.88-1.96s-.25-2.27-1.45-2.39-2.48.76-2.87 1.96.25 2.27 1.44 2.39Zm8.77.88c1.2.12 2.51-.76 2.91-1.97s-.25-2.29-1.46-2.4-2.5.76-2.9 1.97.25 2.28 1.45 2.4Zm8.86.9c1.22.12 2.54-.76 2.94-1.98s-.26-2.3-1.48-2.42-2.53.77-2.94 1.98.25 2.29 1.47 2.42Zm8.96.9c1.23.12 2.56-.76 2.97-1.99s-.26-2.31-1.49-2.43-2.56.77-2.97 1.99.26 2.31 1.49 2.43Zm9.05.91c1.24.13 2.59-.77 3-1.99s-.26-2.32-1.51-2.45-2.59.77-3 2 .26 2.32 1.51 2.44Zm9.15.93c1.26.13 2.62-.77 3.04-2s-.27-2.34-1.53-2.46-2.62.78-3.03 2.01.27 2.33 1.52 2.46Zm9.25.93c1.27.13 2.65-.77 3.07-2.01s-.27-2.35-1.54-2.47-2.64.78-3.06 2.02.27 2.34 1.54 2.47Zm9.35.94c1.29.13 2.68-.78 3.1-2.02s-.27-2.36-1.56-2.49-2.67.78-3.1 2.03.27 2.36 1.56 2.49Zm9.45.96c1.3.13 2.7-.78 3.14-2.03s-.28-2.38-1.58-2.5-2.7.78-3.13 2.03.28 2.37 1.57 2.5Zm9.55.96c1.32.13 2.74-.78 3.17-2.04s-.28-2.39-1.6-2.52-2.73.79-3.16 2.04.28 2.38 1.59 2.52Zm9.67.98c1.33.13 2.77-.78 3.21-2.05s-.28-2.4-1.62-2.53-2.76.79-3.2 2.05.28 2.4 1.61 2.53Zm9.77.98c1.34.14 2.8-.79 3.24-2.06s-.29-2.42-1.64-2.55-2.79.79-3.24 2.06.29 2.41 1.63 2.55Zm9.88 1c1.36.14 2.83-.79 3.28-2.07s-.29-2.43-1.65-2.56-2.82.8-3.27 2.07.29 2.42 1.65 2.56Zm10 1.01c1.38.14 2.86-.79 3.31-2.08s-.3-2.44-1.67-2.58-2.85.8-3.31 2.08.29 2.44 1.67 2.58Zm10.11 1.02c1.39.14 2.89-.8 3.35-2.09s-.3-2.46-1.69-2.59-2.89.8-3.34 2.09.3 2.45 1.68 2.59Zm10.22 1.03c1.41.14 2.92-.8 3.39-2.1s-.3-2.47-1.71-2.61-2.92.8-3.38 2.1.3 2.47 1.7 2.61Zm10.34 1.04c1.42.14 2.96-.8 3.43-2.11s-.31-2.49-1.73-2.63-2.95.81-3.42 2.11.31 2.48 1.73 2.62Zm10.46 1.05c1.44.15 2.99-.8 3.47-2.12s-.31-2.5-1.75-2.64-2.99.81-3.46 2.12.31 2.49 1.75 2.64Zm10.59 1.07c1.46.15 3.03-.81 3.51-2.13s-.31-2.52-1.77-2.66-3.02.81-3.5 2.13.31 2.51 1.77 2.66Zm10.7 1.08c1.47.15 3.06-.81 3.55-2.14s-.32-2.53-1.79-2.68-3.06.82-3.54 2.15.32 2.52 1.79 2.67Zm10.84 1.1c1.49.15 3.1-.81 3.59-2.15s-.32-2.55-1.82-2.69-3.09.82-3.58 2.16.32 2.54 1.81 2.69Zm10.96 1.1c1.51.15 3.13-.82 3.63-2.16s-.33-2.56-1.84-2.71-3.13.82-3.62 2.17.33 2.55 1.83 2.71Zm-208.82-12c1.19.13 2.48-.74 2.87-1.94s-.25-2.27-1.44-2.4-2.47.75-2.87 1.94.25 2.27 1.43 2.39Zm8.74.93c1.2.13 2.5-.74 2.9-1.95s-.25-2.28-1.46-2.41-2.5.75-2.89 1.95.25 2.28 1.45 2.41Zm8.83.94c1.21.13 2.53-.75 2.93-1.96s-.26-2.3-1.47-2.42-2.52.75-2.93 1.96.25 2.29 1.47 2.42Zm8.93.94c1.23.13 2.55-.75 2.96-1.97s-.26-2.31-1.49-2.44-2.55.75-2.96 1.97.26 2.3 1.48 2.43Zm9.02.96c1.24.13 2.58-.75 2.99-1.98s-.26-2.32-1.5-2.45-2.58.76-2.99 1.98.26 2.32 1.5 2.45Zm9.11.97c1.25.13 2.61-.75 3.03-1.98s-.27-2.33-1.52-2.46-2.61.76-3.02 1.99.27 2.33 1.52 2.46Zm9.22.98c1.27.13 2.64-.76 3.06-1.99s-.27-2.35-1.54-2.48-2.64.76-3.05 2 .27 2.34 1.53 2.48Zm9.32.99c1.28.14 2.67-.76 3.09-2s-.27-2.36-1.56-2.49-2.66.77-3.09 2.01.27 2.35 1.55 2.49Zm9.42 1.01c1.29.14 2.7-.76 3.12-2.01s-.28-2.37-1.57-2.51-2.69.77-3.12 2.02.28 2.37 1.57 2.51Zm9.52 1.01c1.31.14 2.73-.77 3.16-2.02s-.28-2.39-1.59-2.52-2.72.77-3.15 2.02.28 2.38 1.59 2.52Zm9.63 1.02c1.33.14 2.76-.77 3.2-2.03s-.28-2.4-1.61-2.54-2.75.77-3.19 2.03.28 2.39 1.6 2.53Zm9.74 1.04c1.34.14 2.79-.77 3.23-2.04s-.29-2.41-1.63-2.55-2.78.78-3.22 2.04.29 2.41 1.62 2.55Zm9.85 1.05c1.36.14 2.82-.77 3.27-2.05s-.29-2.43-1.65-2.57-2.81.78-3.26 2.05.29 2.42 1.64 2.57Zm9.96 1.06c1.37.15 2.85-.78 3.3-2.06s-.29-2.44-1.67-2.58-2.84.78-3.3 2.06.29 2.44 1.66 2.58Zm10.07 1.07c1.39.15 2.88-.78 3.34-2.07s-.3-2.46-1.69-2.6-2.88.78-3.33 2.07.3 2.45 1.68 2.6Zm10.19 1.08c1.4.15 2.91-.78 3.38-2.08s-.3-2.47-1.7-2.62-2.91.79-3.37 2.08.3 2.46 1.7 2.61Zm10.3 1.1c1.42.15 2.95-.78 3.42-2.09s-.3-2.48-1.73-2.63-2.94.79-3.41 2.09.3 2.48 1.72 2.63Zm10.43 1.11c1.44.15 2.98-.79 3.45-2.1s-.31-2.5-1.75-2.65-2.98.79-3.45 2.1.31 2.49 1.74 2.64Zm10.54 1.12c1.45.15 3.02-.79 3.49-2.11s-.31-2.51-1.77-2.66-3.01.8-3.49 2.11.31 2.51 1.76 2.66Zm10.67 1.13c1.47.16 3.05-.79 3.53-2.12s-.32-2.53-1.79-2.68-3.05.8-3.53 2.12.32 2.52 1.78 2.68ZM43.66 265.56c1.18.13 2.47-.73 2.86-1.92s-.25-2.27-1.44-2.4-2.46.73-2.86 1.93.25 2.26 1.43 2.4Zm8.71.97c1.2.13 2.49-.73 2.89-1.93s-.25-2.28-1.45-2.41-2.49.74-2.88 1.93.25 2.28 1.44 2.41Zm8.8.98c1.21.14 2.52-.73 2.92-1.94s-.26-2.29-1.47-2.43-2.52.74-2.92 1.94.25 2.29 1.46 2.42Zm8.89 1c1.22.14 2.55-.74 2.95-1.95s-.26-2.31-1.48-2.44-2.54.74-2.95 1.95.26 2.3 1.48 2.44Zm8.99 1.01c1.24.14 2.57-.74 2.98-1.96s-.26-2.32-1.5-2.45-2.57.74-2.98 1.96.26 2.31 1.5 2.45Zm9.09 1.01c1.25.14 2.6-.74 3.02-1.97s-.26-2.33-1.52-2.47-2.6.74-3.01 1.97.26 2.33 1.51 2.47Zm9.19 1.03c1.26.14 2.63-.74 3.05-1.98s-.27-2.35-1.53-2.48-2.63.75-3.04 1.98.27 2.34 1.53 2.48Zm9.29 1.04c1.28.14 2.66-.75 3.08-1.98s-.27-2.36-1.55-2.5-2.66.75-3.08 1.99.27 2.35 1.55 2.5Zm9.38 1.05c1.29.14 2.69-.75 3.11-1.99s-.27-2.37-1.57-2.51-2.68.75-3.11 2 .27 2.37 1.56 2.51Zm9.49 1.06c1.31.15 2.72-.75 3.15-2s-.28-2.38-1.59-2.53-2.71.76-3.14 2.01.28 2.38 1.58 2.52Zm9.6 1.07c1.32.15 2.75-.75 3.18-2.01s-.28-2.4-1.61-2.54-2.74.76-3.18 2.01.28 2.39 1.6 2.54Zm9.71 1.09c1.33.15 2.78-.75 3.22-2.02s-.29-2.41-1.62-2.56-2.77.76-3.21 2.02.28 2.41 1.62 2.55Zm9.81 1.1c1.35.15 2.81-.76 3.26-2.03s-.29-2.43-1.64-2.57-2.8.76-3.25 2.03.29 2.42 1.63 2.57Zm9.92 1.11c1.37.15 2.84-.76 3.29-2.04s-.29-2.44-1.66-2.59-2.83.77-3.28 2.04.29 2.43 1.65 2.59Zm10.04 1.12c1.38.15 2.87-.76 3.33-2.05s-.29-2.45-1.68-2.6-2.87.77-3.32 2.05.3 2.45 1.67 2.6Zm10.15 1.13c1.4.16 2.9-.77 3.36-2.06s-.3-2.47-1.7-2.62-2.9.77-3.36 2.06.3 2.46 1.69 2.62Zm-143.93-7.06c1.18.14 2.46-.71 2.85-1.91s-.25-2.27-1.43-2.4-2.46.72-2.85 1.91.25 2.26 1.43 2.4Zm8.67 1.02c1.19.14 2.48-.72 2.88-1.91s-.25-2.28-1.45-2.42-2.48.72-2.88 1.92.25 2.27 1.44 2.41Zm8.78 1.03c1.21.14 2.51-.72 2.91-1.92s-.25-2.29-1.46-2.43-2.51.72-2.91 1.93.25 2.29 1.46 2.43Zm8.86 1.04c1.22.14 2.54-.72 2.94-1.93s-.26-2.31-1.48-2.45-2.53.73-2.94 1.93.25 2.3 1.47 2.44Zm8.96 1.05c1.23.14 2.56-.72 2.97-1.94s-.26-2.32-1.49-2.46-2.56.73-2.97 1.94.26 2.31 1.49 2.46Zm9.06 1.06c1.24.15 2.59-.73 3.01-1.95s-.26-2.33-1.51-2.47c-1.25-.14-2.59.73-3 1.95s.26 2.32 1.51 2.47Zm9.16 1.08c1.26.15 2.62-.73 3.04-1.96s-.27-2.34-1.53-2.49-2.62.73-3.03 1.96.26 2.34 1.52 2.49Zm9.25 1.08c1.27.15 2.65-.73 3.07-1.97s-.27-2.36-1.54-2.5-2.65.74-3.07 1.97.27 2.35 1.54 2.5Zm9.36 1.1c1.29.15 2.68-.73 3.1-1.97s-.27-2.37-1.56-2.52-2.68.74-3.1 1.98.27 2.36 1.56 2.51Zm9.45 1.11c1.3.15 2.71-.73 3.14-1.98s-.28-2.38-1.58-2.53-2.7.74-3.13 1.99.28 2.38 1.57 2.53Zm9.57 1.12c1.32.15 2.74-.74 3.17-1.99s-.28-2.4-1.6-2.55-2.73.74-3.17 2 .28 2.39 1.59 2.54Zm9.67 1.14c1.33.16 2.77-.74 3.21-2s-.29-2.41-1.62-2.56-2.76.75-3.2 2 .28 2.4 1.61 2.56Zm9.78 1.14c1.35.16 2.8-.74 3.24-2.01s-.29-2.42-1.64-2.58c-1.34-.15-2.79.75-3.24 2.01s.29 2.42 1.63 2.57Zm9.89 1.16c1.36.16 2.83-.74 3.28-2.02s-.29-2.44-1.66-2.59-2.83.75-3.27 2.02.29 2.43 1.65 2.59Zm10 1.18c1.38.16 2.86-.75 3.32-2.03s-.29-2.45-1.67-2.61-2.86.75-3.31 2.03.29 2.45 1.67 2.61Zm10.11 1.18c1.39.16 2.89-.75 3.35-2.04.46-1.29-.3-2.47-1.69-2.63s-2.89.76-3.35 2.04.3 2.46 1.69 2.62Zm-143.44-7.81c1.18.14 2.45-.7 2.84-1.89s-.25-2.27-1.43-2.41-2.45.71-2.84 1.89.24 2.26 1.42 2.41Zm8.65 1.07c1.19.15 2.48-.7 2.87-1.9s-.25-2.28-1.44-2.42-2.47.71-2.87 1.9.25 2.27 1.44 2.42Zm8.74 1.07c1.2.15 2.5-.7 2.9-1.9s-.25-2.29-1.46-2.44-2.5.71-2.9 1.91.25 2.29 1.45 2.43Zm8.84 1.09c1.21.15 2.53-.71 2.93-1.91s-.26-2.3-1.47-2.45-2.53.71-2.93 1.92.25 2.3 1.47 2.45Zm8.93 1.09c1.23.15 2.56-.71 2.96-1.92s-.26-2.32-1.49-2.46-2.55.71-2.96 1.92.26 2.31 1.49 2.46Zm9.03 1.11c1.24.15 2.58-.71 3-1.93s-.26-2.33-1.51-2.48-2.58.72-2.99 1.93.26 2.32 1.5 2.48Zm9.12 1.12c1.25.15 2.61-.71 3.03-1.94s-.26-2.34-1.52-2.49-2.61.72-3.02 1.94.26 2.34 1.52 2.49Zm9.22 1.14c1.27.16 2.64-.72 3.06-1.95s-.27-2.35-1.54-2.51-2.64.72-3.06 1.95.27 2.35 1.54 2.5Zm9.33 1.14c1.28.16 2.67-.72 3.09-1.95s-.27-2.37-1.56-2.52-2.67.72-3.09 1.96.27 2.36 1.55 2.52Zm9.42 1.16c1.3.16 2.7-.72 3.13-1.96s-.28-2.38-1.58-2.54-2.69.73-3.12 1.97.28 2.37 1.57 2.53Zm9.54 1.17c1.31.16 2.73-.72 3.16-1.97s-.28-2.39-1.59-2.55-2.72.73-3.16 1.98.28 2.39 1.59 2.55Zm9.63 1.18c1.33.16 2.76-.72 3.2-1.98s-.28-2.41-1.61-2.57-2.75.73-3.19 1.98.28 2.4 1.61 2.56Zm9.75 1.2c1.34.16 2.79-.73 3.23-1.99s-.29-2.42-1.63-2.58-2.78.73-3.23 1.99.29 2.42 1.62 2.58Zm9.85 1.21c1.36.17 2.82-.73 3.27-2s-.29-2.44-1.65-2.6-2.82.73-3.26 2 .29 2.43 1.64 2.6Zm9.97 1.22c1.37.17 2.85-.73 3.3-2.01s-.29-2.45-1.67-2.61-2.85.74-3.3 2.01.29 2.44 1.66 2.61Zm10.08 1.24c1.39.17 2.88-.73 3.34-2.02s-.3-2.46-1.69-2.63-2.88.74-3.34 2.02.3 2.46 1.68 2.63Zm-142.96-8.55c1.17.15 2.44-.69 2.83-1.87s-.25-2.27-1.42-2.41-2.44.69-2.83 1.87.24 2.26 1.42 2.41Zm8.63 1.11c1.18.15 2.47-.69 2.86-1.88s-.25-2.28-1.44-2.43-2.46.69-2.86 1.88.25 2.27 1.43 2.42Zm8.71 1.12c1.2.15 2.49-.69 2.89-1.89s-.25-2.29-1.45-2.44-2.49.7-2.89 1.89.25 2.28 1.45 2.44Zm8.81 1.13c1.21.16 2.52-.69 2.92-1.89s-.25-2.3-1.47-2.45-2.52.7-2.92 1.9.25 2.3 1.46 2.45Zm8.9 1.14c1.22.16 2.55-.69 2.95-1.9s-.26-2.31-1.48-2.47-2.55.7-2.95 1.91.26 2.31 1.48 2.47Zm8.99 1.15c1.24.16 2.57-.7 2.99-1.91s-.26-2.33-1.5-2.48-2.57.7-2.98 1.91.26 2.32 1.5 2.48Zm9.1 1.17c1.25.16 2.6-.7 3.02-1.92s-.26-2.34-1.52-2.5-2.6.7-3.01 1.92.26 2.33 1.51 2.49Zm9.19 1.18c1.26.16 2.63-.7 3.05-1.93s-.27-2.35-1.53-2.51-2.63.71-3.05 1.93.27 2.35 1.53 2.51Zm9.29 1.19c1.28.16 2.66-.7 3.08-1.94s-.27-2.37-1.55-2.53-2.66.71-3.08 1.94.27 2.36 1.55 2.52Zm9.39 1.21c1.29.17 2.69-.7 3.12-1.94s-.27-2.38-1.57-2.54-2.68.71-3.11 1.95.27 2.37 1.56 2.54Zm9.5 1.22c1.31.17 2.72-.71 3.15-1.95s-.28-2.39-1.59-2.56-2.71.71-3.14 1.96.28 2.39 1.58 2.55Zm9.61 1.23c1.32.17 2.75-.71 3.19-1.96s-.28-2.41-1.61-2.57-2.74.71-3.18 1.96.28 2.4 1.6 2.57Zm9.71 1.25c1.34.17 2.78-.71 3.22-1.97s-.28-2.42-1.62-2.59-2.77.72-3.21 1.97.28 2.41 1.62 2.58Zm9.82 1.26c1.35.17 2.81-.71 3.26-1.98s-.29-2.43-1.64-2.6-2.81.72-3.25 1.98.29 2.43 1.64 2.6Zm9.93 1.27c1.37.18 2.84-.71 3.29-1.99s-.29-2.45-1.66-2.62-2.84.72-3.29 1.99.29 2.44 1.65 2.62Zm10.04 1.29c1.38.18 2.87-.72 3.33-2s-.29-2.46-1.68-2.64-2.87.72-3.32 2 .3 2.46 1.67 2.63Zm-142.46-9.28c1.17.16 2.43-.67 2.82-1.85s-.25-2.26-1.42-2.42-2.43.68-2.82 1.86.24 2.26 1.41 2.41Zm8.59 1.15c1.18.16 2.46-.67 2.85-1.86s-.25-2.27-1.43-2.43-2.46.68-2.85 1.86.24 2.27 1.43 2.43Zm8.69 1.16c1.19.16 2.49-.68 2.88-1.87s-.25-2.29-1.45-2.44-2.48.68-2.88 1.87.25 2.28 1.44 2.44Zm8.77 1.17c1.21.16 2.51-.68 2.91-1.88s-.25-2.3-1.46-2.46-2.51.68-2.91 1.88.25 2.29 1.46 2.46Zm8.87 1.19c1.22.16 2.54-.68 2.94-1.89s-.26-2.31-1.48-2.47-2.54.69-2.94 1.89.26 2.31 1.47 2.47Zm8.97 1.2c1.23.16 2.57-.68 2.98-1.89s-.26-2.32-1.49-2.49-2.56.69-2.97 1.89.26 2.32 1.49 2.48Zm9.06 1.21c1.25.17 2.59-.68 3.01-1.9s-.26-2.34-1.51-2.5c-1.25-.16-2.59.69-3 1.9s.26 2.33 1.51 2.5Zm9.16 1.23c1.26.17 2.62-.69 3.04-1.91s-.27-2.35-1.53-2.52-2.62.69-3.04 1.91.27 2.35 1.52 2.51Zm9.26 1.24c1.27.17 2.65-.69 3.07-1.92s-.27-2.36-1.55-2.53-2.65.69-3.07 1.92.27 2.36 1.54 2.53Zm9.36 1.25c1.29.17 2.68-.69 3.11-1.93s-.27-2.38-1.56-2.55-2.68.7-3.1 1.93.27 2.37 1.56 2.54Zm9.47 1.27c1.3.17 2.71-.69 3.14-1.93s-.28-2.39-1.58-2.56-2.7.7-3.13 1.94.28 2.39 1.57 2.56Zm9.57 1.28c1.32.18 2.74-.69 3.18-1.94s-.28-2.4-1.6-2.58-2.74.7-3.17 1.94c-.43 1.25.28 2.4 1.59 2.57Zm-102.61-4.75c1.17.16 2.43-.66 2.82-1.84s-.24-2.26-1.41-2.42-2.42.66-2.81 1.84.24 2.26 1.41 2.42Zm8.56 1.19c1.18.16 2.45-.66 2.84-1.84s-.25-2.27-1.43-2.43-2.45.67-2.84 1.85.24 2.27 1.42 2.43Zm8.66 1.21c1.19.17 2.48-.66 2.87-1.85s-.25-2.29-1.44-2.45-2.47.67-2.87 1.85.25 2.28 1.44 2.45Zm8.75 1.22c1.2.17 2.5-.66 2.9-1.86s-.25-2.3-1.46-2.46-2.5.67-2.9 1.86.25 2.29 1.45 2.46Zm8.84 1.23c1.21.17 2.53-.67 2.93-1.87s-.26-2.31-1.47-2.48-2.53.67-2.93 1.87.25 2.31 1.47 2.47Zm8.94 1.25c1.23.17 2.56-.67 2.97-1.87s-.26-2.32-1.49-2.49-2.56.67-2.96 1.88.26 2.32 1.49 2.49Zm9.03 1.25c1.24.17 2.58-.67 3-1.88s-.26-2.34-1.51-2.51-2.58.67-2.99 1.88.26 2.33 1.5 2.5Zm9.13 1.28c1.25.17 2.61-.67 3.03-1.89.42-1.22-.27-2.35-1.52-2.52s-2.61.68-3.03 1.89.26 2.34 1.52 2.52Zm9.23 1.28c1.27.18 2.64-.67 3.06-1.9s-.27-2.36-1.54-2.53-2.64.68-3.06 1.9c-.42 1.22.27 2.36 1.54 2.53Zm9.33 1.3c1.29.18 2.67-.67 3.1-1.91s-.27-2.37-1.56-2.55-2.67.68-3.09 1.91.27 2.37 1.55 2.55Zm9.43 1.32c1.3.18 2.7-.68 3.13-1.92s-.28-2.39-1.58-2.57-2.69.68-3.12 1.92c-.43 1.24.27 2.38 1.57 2.56Zm9.54 1.32c1.31.18 2.73-.68 3.17-1.92s-.28-2.4-1.59-2.58-2.73.68-3.16 1.93.28 2.4 1.59 2.58Zm9.64 1.35c1.33.19 2.76-.68 3.2-1.93s-.28-2.41-1.61-2.6-2.75.68-3.19 1.93.28 2.41 1.61 2.59Zm9.75 1.36c1.34.19 2.79-.68 3.24-1.94s-.29-2.43-1.63-2.61-2.79.69-3.23 1.94.29 2.42 1.62 2.61Zm-121.66-7.98c1.16.17 2.42-.65 2.81-1.82s-.24-2.26-1.41-2.42-2.42.65-2.8 1.82.24 2.25 1.4 2.42Zm8.54 1.24c1.17.17 2.44-.65 2.83-1.83s-.25-2.27-1.42-2.44-2.44.65-2.83 1.83.24 2.27 1.42 2.44Zm8.62 1.24c1.19.17 2.47-.65 2.86-1.83s-.25-2.28-1.44-2.45-2.47.65-2.86 1.84.25 2.28 1.43 2.45Zm8.72 1.27c1.2.17 2.5-.65 2.89-1.84s-.25-2.3-1.45-2.47-2.49.66-2.89 1.84.25 2.29 1.45 2.46Zm8.81 1.27c1.21.18 2.52-.65 2.92-1.85s-.26-2.31-1.47-2.48-2.52.66-2.92 1.85.25 2.3 1.46 2.48Zm8.91 1.29c1.22.18 2.55-.65 2.96-1.86s-.26-2.32-1.48-2.49-2.55.66-2.95 1.86.26 2.32 1.48 2.49Zm9 1.31c1.24.18 2.58-.66 2.99-1.86s-.26-2.33-1.5-2.51-2.57.66-2.98 1.87c-.41 1.21.26 2.33 1.5 2.51Zm9.1 1.31c1.25.18 2.6-.66 3.02-1.87s-.27-2.35-1.52-2.52-2.6.66-3.02 1.87.26 2.34 1.51 2.52Zm9.2 1.34c1.26.18 2.63-.66 3.05-1.88s-.27-2.36-1.53-2.54-2.63.66-3.05 1.88.27 2.35 1.53 2.54Zm9.3 1.34c1.28.19 2.66-.66 3.09-1.89s-.27-2.37-1.55-2.55-2.66.66-3.08 1.89c-.42 1.22.27 2.37 1.55 2.55Zm9.4 1.36c1.29.19 2.69-.66 3.12-1.9s-.28-2.39-1.57-2.57-2.69.67-3.11 1.9.27 2.38 1.56 2.57Zm9.5 1.38c1.31.19 2.72-.66 3.15-1.9s-.28-2.4-1.59-2.59-2.72.67-3.15 1.91.28 2.39 1.58 2.58Zm9.61 1.39c1.32.19 2.75-.66 3.19-1.91s-.28-2.41-1.61-2.6-2.75.67-3.18 1.91.28 2.41 1.6 2.6Zm9.72 1.41c1.34.19 2.78-.67 3.22-1.92s-.29-2.43-1.63-2.62c-1.34-.19-2.78.67-3.22 1.92s.28 2.42 1.62 2.61Zm-121.25-8.6c1.16.17 2.41-.63 2.8-1.8s-.24-2.26-1.4-2.43-2.41.64-2.79 1.8.24 2.25 1.4 2.43Zm8.51 1.28c1.17.18 2.44-.63 2.83-1.81s-.25-2.27-1.42-2.44-2.43.64-2.82 1.81.24 2.26 1.41 2.44Zm8.6 1.29c1.18.18 2.46-.64 2.86-1.82s-.25-2.28-1.43-2.46-2.46.64-2.85 1.82.25 2.28 1.43 2.45Zm8.69 1.31c1.19.18 2.49-.64 2.89-1.82s-.25-2.29-1.45-2.47-2.48.64-2.88 1.83.25 2.29 1.44 2.47Zm8.78 1.32c1.21.18 2.51-.64 2.92-1.83s-.25-2.31-1.46-2.48-2.51.64-2.91 1.83.25 2.3 1.46 2.48Zm8.88 1.33c1.22.18 2.54-.64 2.95-1.84s-.26-2.32-1.48-2.5-2.54.64-2.94 1.84.26 2.31 1.48 2.5Zm8.97 1.35c1.23.19 2.57-.64 2.98-1.85s-.26-2.33-1.5-2.51-2.57.65-2.97 1.85.26 2.33 1.49 2.51Zm9.07 1.37c1.25.19 2.6-.64 3.01-1.85s-.26-2.34-1.51-2.53-2.59.65-3.01 1.86.26 2.34 1.51 2.53Zm9.16 1.37c1.26.19 2.62-.64 3.04-1.86s-.27-2.36-1.53-2.54-2.62.65-3.04 1.86c-.42 1.21.27 2.35 1.53 2.54Zm9.27 1.4c1.28.19 2.65-.65 3.08-1.87s-.27-2.37-1.55-2.56-2.65.65-3.07 1.87c-.42 1.22.27 2.37 1.54 2.56Zm9.37 1.4c1.29.19 2.68-.65 3.11-1.88s-.27-2.38-1.57-2.57-2.68.65-3.1 1.88c-.43 1.23.27 2.38 1.56 2.57Zm9.47 1.43c1.3.2 2.71-.65 3.14-1.88s-.28-2.4-1.58-2.59-2.71.65-3.14 1.89.28 2.39 1.58 2.59Zm9.57 1.44c1.32.2 2.74-.65 3.18-1.89s-.28-2.41-1.6-2.61-2.74.65-3.17 1.89.28 2.41 1.59 2.6Zm-94.1-5.11c1.18.18 2.45-.62 2.85-1.8s-.25-2.28-1.43-2.46-2.45.63-2.84 1.8.24 2.28 1.42 2.46Zm8.66 1.35c1.19.19 2.48-.62 2.88-1.81s-.25-2.29-1.44-2.47-2.48.63-2.87 1.81.25 2.29 1.44 2.47Zm8.75 1.37c1.2.19 2.51-.62 2.91-1.81s-.25-2.3-1.46-2.49-2.5.63-2.9 1.82.25 2.3 1.45 2.49Zm8.85 1.38c1.22.19 2.53-.63 2.94-1.82s-.26-2.32-1.47-2.5-2.53.63-2.93 1.82.26 2.31 1.47 2.5Zm8.94 1.39c1.23.19 2.56-.63 2.97-1.83s-.26-2.33-1.49-2.52-2.56.63-2.96 1.83.26 2.32 1.49 2.52Zm9.04 1.41c1.24.19 2.59-.63 3-1.84s-.26-2.34-1.51-2.53-2.58.63-3 1.84.26 2.34 1.5 2.53Zm9.13 1.42c1.26.2 2.61-.63 3.03-1.84s-.27-2.36-1.52-2.55-2.61.63-3.03 1.84.27 2.35 1.52 2.55Zm9.24 1.44c1.27.2 2.64-.63 3.07-1.85s-.27-2.37-1.54-2.56-2.64.64-3.06 1.85.27 2.36 1.54 2.56Zm9.33 1.46c1.28.2 2.67-.63 3.1-1.86s-.27-2.38-1.56-2.58-2.67.64-3.09 1.86.27 2.38 1.55 2.58Zm9.44 1.47c1.3.2 2.7-.63 3.13-1.87s-.28-2.4-1.58-2.59-2.7.64-3.13 1.87.28 2.39 1.57 2.59Zm-84.24-4.1c1.17.19 2.45-.61 2.84-1.78s-.25-2.28-1.42-2.46-2.44.61-2.83 1.78.24 2.27 1.42 2.46Zm8.63 1.39c1.19.19 2.47-.61 2.87-1.79s-.25-2.29-1.44-2.48-2.47.61-2.86 1.79.25 2.28 1.43 2.48Zm8.73 1.41c1.2.19 2.5-.61 2.9-1.8s-.25-2.3-1.45-2.49-2.49.61-2.89 1.8.25 2.3 1.45 2.49Zm8.81 1.42c1.21.2 2.52-.61 2.93-1.8s-.26-2.31-1.47-2.51-2.52.62-2.92 1.8.26 2.31 1.47 2.51Zm8.92 1.44c1.22.2 2.55-.61 2.96-1.81s-.26-2.33-1.48-2.52-2.55.62-2.95 1.81.26 2.32 1.48 2.52Zm9 1.45c1.24.2 2.58-.61 2.99-1.82s-.26-2.34-1.5-2.54-2.58.62-2.99 1.82.26 2.33 1.5 2.53Zm9.11 1.47c1.25.2 2.61-.61 3.02-1.82s-.27-2.35-1.52-2.55-2.6.62-3.02 1.83.26 2.35 1.51 2.55Zm9.2 1.49c1.27.2 2.64-.61 3.06-1.83s-.27-2.37-1.54-2.57-2.63.62-3.05 1.83.27 2.36 1.53 2.56Zm9.3 1.5c1.28.21 2.66-.62 3.09-1.84s-.27-2.38-1.55-2.58c-1.28-.2-2.66.62-3.08 1.84s.27 2.37 1.55 2.58Zm9.41 1.51c1.29.21 2.69-.62 3.12-1.85s-.28-2.39-1.57-2.6-2.69.62-3.12 1.85.27 2.39 1.57 2.6Zm9.51 1.54c1.31.21 2.72-.62 3.16-1.85s-.28-2.41-1.59-2.61-2.72.62-3.15 1.86.28 2.4 1.58 2.61Zm-93.47-6.06c1.17.2 2.44-.59 2.83-1.76s-.25-2.28-1.42-2.47-2.43.6-2.82 1.77.24 2.27 1.41 2.47Zm8.6 1.43c1.18.2 2.46-.59 2.86-1.77s-.25-2.29-1.43-2.48-2.46.6-2.85 1.77.25 2.28 1.43 2.48Zm8.7 1.45c1.19.2 2.49-.6 2.89-1.78s-.25-2.3-1.45-2.5-2.49.6-2.88 1.78.25 2.3 1.44 2.49Zm8.79 1.47c1.21.2 2.51-.6 2.92-1.78s-.25-2.31-1.46-2.51-2.51.6-2.91 1.79.25 2.31 1.46 2.51Zm8.88 1.48c1.22.2 2.54-.6 2.95-1.79.41-1.19-.26-2.33-1.48-2.53s-2.54.6-2.94 1.79.26 2.32 1.48 2.52Zm8.97 1.5c1.23.21 2.57-.6 2.98-1.8s-.26-2.34-1.5-2.54-2.57.6-2.98 1.8.26 2.33 1.49 2.54Zm9.08 1.51c1.25.21 2.6-.6 3.01-1.81s-.26-2.35-1.51-2.56-2.59.6-3.01 1.81.26 2.35 1.51 2.55Zm9.17 1.53c1.26.21 2.63-.6 3.05-1.81s-.27-2.36-1.53-2.57-2.62.61-3.04 1.82.27 2.36 1.52 2.57Zm9.27 1.55c1.28.21 2.65-.6 3.08-1.82s-.27-2.38-1.55-2.59-2.65.61-3.07 1.82.27 2.37 1.54 2.58Zm9.38 1.56c1.29.22 2.68-.6 3.11-1.83s-.28-2.39-1.57-2.6-2.68.61-3.1 1.83.27 2.39 1.56 2.6Zm-75.11-3.47c1.18.2 2.45-.58 2.85-1.75s-.25-2.29-1.43-2.49-2.45.59-2.84 1.76.24 2.28 1.42 2.48Zm8.67 1.49c1.19.21 2.48-.58 2.88-1.76s-.25-2.3-1.44-2.5-2.48.59-2.87 1.76.25 2.29 1.44 2.5Zm8.76 1.51c1.2.21 2.51-.58 2.91-1.77s-.25-2.31-1.46-2.52-2.5.59-2.9 1.77.25 2.31 1.46 2.51Zm8.85 1.53c1.22.21 2.53-.58 2.94-1.77s-.26-2.32-1.47-2.53-2.53.59-2.93 1.78.25 2.32 1.47 2.53Zm8.95 1.54c1.23.21 2.56-.58 2.97-1.78s-.26-2.34-1.49-2.55-2.56.59-2.97 1.78.26 2.33 1.49 2.54Zm9.04 1.56c1.24.21 2.59-.59 3-1.79s-.26-2.35-1.51-2.56-2.59.59-3 1.79.26 2.34 1.5 2.56Zm9.14 1.57c1.26.22 2.62-.59 3.03-1.79s-.27-2.36-1.53-2.58-2.61.59-3.03 1.8.27 2.36 1.52 2.57Zm9.24 1.59c1.27.22 2.65-.59 3.07-1.8s-.27-2.38-1.54-2.59-2.64.59-3.06 1.8.27 2.37 1.54 2.59Zm-65.51-2.25c1.18.21 2.45-.57 2.84-1.74s-.25-2.28-1.42-2.49-2.44.57-2.83 1.74.24 2.28 1.42 2.49Zm8.64 1.54c1.19.21 2.47-.57 2.87-1.74s-.25-2.3-1.44-2.5-2.47.57-2.86 1.75.25 2.29 1.44 2.5Zm8.73 1.55c1.2.21 2.5-.57 2.9-1.75s-.25-2.31-1.45-2.52-2.5.57-2.89 1.75.25 2.3 1.45 2.52Zm8.82 1.57c1.21.22 2.52-.57 2.93-1.76s-.26-2.32-1.47-2.53-2.52.57-2.92 1.76.25 2.32 1.47 2.53Zm8.92 1.59c1.23.22 2.55-.57 2.96-1.76s-.26-2.33-1.49-2.55-2.55.58-2.96 1.77.26 2.33 1.48 2.55Zm9.01 1.6c1.24.22 2.58-.57 2.99-1.77s-.26-2.35-1.5-2.56-2.58.58-2.99 1.77.26 2.34 1.5 2.56Zm9.11 1.62c1.25.22 2.61-.57 3.02-1.78s-.26-2.36-1.52-2.58-2.6.58-3.02 1.78.26 2.36 1.51 2.58Zm-56.08-.95c1.17.21 2.44-.55 2.83-1.72s-.24-2.28-1.42-2.49-2.44.56-2.82 1.72.24 2.28 1.41 2.49Zm8.61 1.58c1.18.22 2.46-.56 2.86-1.73s-.25-2.29-1.43-2.51-2.46.56-2.85 1.73.25 2.29 1.43 2.51Zm8.7 1.6c1.2.22 2.49-.56 2.89-1.73s-.25-2.31-1.45-2.52-2.49.56-2.88 1.73.25 2.3 1.45 2.52Zm8.79 1.61c1.21.22 2.52-.56 2.92-1.74s-.25-2.32-1.46-2.54c-1.21-.22-2.51.56-2.92 1.74s.25 2.31 1.46 2.54Zm8.89 1.63c1.22.22 2.54-.56 2.95-1.75s-.26-2.33-1.48-2.55-2.54.56-2.95 1.75.26 2.33 1.48 2.55Zm8.98 1.65c1.23.23 2.57-.56 2.98-1.75s-.26-2.35-1.5-2.57-2.57.56-2.98 1.75.26 2.34 1.49 2.57Zm9.08 1.66c1.25.23 2.6-.56 3.01-1.76s-.26-2.36-1.52-2.58-2.59.56-3.01 1.76.26 2.35 1.51 2.58Zm9.18 1.69c1.26.23 2.63-.56 3.05-1.76s-.27-2.37-1.53-2.6-2.62.56-3.04 1.77.27 2.37 1.53 2.6Zm-65.08-2.92c1.17.22 2.43-.54 2.82-1.7s-.24-2.28-1.41-2.5-2.43.55-2.82 1.71.24 2.28 1.41 2.5Zm8.59 1.62c1.18.22 2.46-.54 2.85-1.71s-.25-2.29-1.43-2.51-2.45.55-2.85 1.71.25 2.29 1.43 2.51Zm8.67 1.64c1.19.23 2.48-.54 2.88-1.72s-.25-2.31-1.44-2.53-2.48.55-2.88 1.72.25 2.3 1.44 2.53Zm8.76 1.65c1.2.23 2.51-.54 2.91-1.72s-.25-2.32-1.46-2.54-2.51.55-2.91 1.72.25 2.31 1.46 2.54Zm8.86 1.68c1.22.23 2.53-.54 2.94-1.73s-.26-2.33-1.48-2.56-2.53.55-2.94 1.73.26 2.33 1.47 2.56Zm8.95 1.69c1.23.23 2.56-.54 2.97-1.73s-.26-2.34-1.49-2.57-2.56.55-2.97 1.74.26 2.34 1.49 2.57Zm9.05 1.71c1.25.24 2.59-.54 3-1.74s-.26-2.36-1.51-2.59-2.59.55-3 1.74.26 2.35 1.5 2.59Zm9.15 1.73c1.26.24 2.62-.54 3.04-1.75s-.27-2.37-1.53-2.61-2.61.55-3.03 1.75c-.42 1.2.27 2.36 1.52 2.6Zm9.24 1.74c1.27.24 2.65-.54 3.07-1.75s-.27-2.38-1.54-2.62-2.64.55-3.06 1.76.27 2.38 1.54 2.62Zm9.35 1.77c1.29.24 2.68-.54 3.1-1.76s-.27-2.4-1.56-2.64-2.67.55-3.1 1.76.27 2.39 1.55 2.63Zm-83.45-6.76c1.16.23 2.42-.53 2.81-1.69s-.24-2.28-1.41-2.5-2.42.53-2.81 1.69.24 2.27 1.4 2.5Zm8.55 1.66c1.18.23 2.45-.53 2.84-1.69s-.25-2.29-1.42-2.52-2.45.53-2.84 1.69.25 2.29 1.42 2.51Zm8.65 1.68c1.19.23 2.47-.53 2.87-1.7s-.25-2.3-1.44-2.53-2.47.53-2.87 1.7.25 2.3 1.44 2.53Zm8.73 1.7c1.2.23 2.5-.53 2.9-1.7s-.25-2.32-1.45-2.55-2.5.53-2.9 1.71.25 2.31 1.45 2.54Zm8.83 1.72c1.21.24 2.53-.53 2.93-1.71s-.26-2.33-1.47-2.56-2.52.53-2.93 1.71.25 2.32 1.47 2.56Zm8.92 1.73c1.23.24 2.55-.53 2.96-1.72s-.26-2.34-1.49-2.58-2.55.54-2.96 1.72.26 2.34 1.48 2.57Zm9.02 1.75c1.24.24 2.58-.53 2.99-1.72s-.26-2.36-1.51-2.59-2.58.54-2.99 1.73.26 2.35 1.5 2.59Zm9.11 1.78c1.25.24 2.61-.53 3.03-1.73s-.27-2.37-1.52-2.61-2.61.54-3.02 1.73.26 2.36 1.52 2.61Zm9.22 1.79c1.27.25 2.64-.53 3.06-1.73s-.27-2.38-1.54-2.63-2.63.54-3.05 1.74.27 2.38 1.53 2.62Zm9.32 1.81c1.28.25 2.67-.53 3.09-1.74s-.27-2.4-1.56-2.64-2.66.54-3.09 1.75.27 2.39 1.55 2.64Zm-83.18-7.18c1.16.23 2.41-.51 2.8-1.67s-.24-2.28-1.4-2.51-2.41.52-2.8 1.67.24 2.27 1.4 2.5Zm8.53 1.7c1.17.23 2.44-.52 2.83-1.67s-.25-2.29-1.42-2.52-2.44.52-2.83 1.68.24 2.28 1.42 2.52Zm8.61 1.73c1.18.24 2.47-.52 2.86-1.68s-.25-2.3-1.43-2.54-2.46.52-2.86 1.68.25 2.3 1.43 2.53Zm8.71 1.74c1.2.24 2.49-.52 2.89-1.69s-.25-2.31-1.45-2.55-2.49.52-2.89 1.69.25 2.31 1.45 2.55Zm8.8 1.76c1.21.24 2.52-.52 2.92-1.69s-.25-2.33-1.47-2.57-2.52.52-2.92 1.7.25 2.32 1.46 2.56Zm8.89 1.77c1.22.24 2.54-.52 2.95-1.7s-.26-2.34-1.48-2.58c-1.22-.24-2.54.52-2.95 1.7s.26 2.33 1.48 2.58Zm8.99 1.8c1.24.25 2.57-.52 2.98-1.7s-.26-2.35-1.5-2.6-2.57.52-2.98 1.71.26 2.35 1.49 2.59Zm9.08 1.82c1.25.25 2.6-.52 3.02-1.71s-.26-2.37-1.52-2.61-2.6.52-3.01 1.71.26 2.36 1.51 2.61Zm9.19 1.83c1.26.25 2.63-.52 3.05-1.72s-.27-2.38-1.53-2.63-2.63.52-3.04 1.72.27 2.37 1.53 2.63Zm9.28 1.86c1.28.26 2.66-.52 3.08-1.72s-.27-2.39-1.55-2.65-2.65.52-3.07 1.73.27 2.39 1.54 2.64Zm-82.89-7.59c1.16.24 2.41-.5 2.79-1.65s-.24-2.28-1.4-2.51-2.4.51-2.79 1.66.24 2.27 1.39 2.51Zm8.49 1.74c1.17.24 2.43-.5 2.82-1.66s-.24-2.29-1.41-2.53-2.43.51-2.82 1.66.24 2.28 1.41 2.52Zm8.59 1.77c1.18.24 2.46-.5 2.85-1.66s-.25-2.3-1.43-2.54-2.46.51-2.85 1.67.25 2.29 1.43 2.54Zm8.68 1.78c1.19.24 2.48-.5 2.88-1.67s-.25-2.31-1.44-2.56-2.48.51-2.88 1.67.25 2.31 1.44 2.55Zm8.77 1.8c1.21.25 2.51-.5 2.91-1.68s-.25-2.33-1.46-2.57-2.51.51-2.91 1.68.25 2.32 1.46 2.57Zm8.86 1.82c1.22.25 2.54-.5 2.94-1.68s-.26-2.34-1.48-2.59-2.53.51-2.94 1.68.26 2.33 1.47 2.58Zm8.96 1.84c1.23.25 2.57-.5 2.97-1.69s-.26-2.35-1.49-2.6-2.56.51-2.97 1.69.26 2.35 1.49 2.6Zm9.05 1.86c1.25.26 2.59-.5 3.01-1.69s-.26-2.36-1.51-2.62-2.59.51-3 1.7.26 2.36 1.5 2.61Zm9.15 1.88c1.26.26 2.62-.5 3.04-1.7s-.27-2.38-1.53-2.63-2.62.51-3.03 1.7.27 2.37 1.52 2.63Zm-81.74-7.87c1.14.24 2.37-.49 2.76-1.63s-.24-2.26-1.38-2.5-2.37.49-2.75 1.63.24 2.26 1.37 2.5Zm8.38 1.77c1.15.24 2.4-.49 2.78-1.64s-.24-2.27-1.39-2.51-2.4.49-2.78 1.64.24 2.27 1.39 2.51Zm8.47 1.78c1.16.25 2.42-.49 2.81-1.64s-.24-2.29-1.41-2.53-2.42.49-2.81 1.64.24 2.28 1.41 2.53Zm8.55 1.81c1.18.25 2.45-.49 2.84-1.65s-.25-2.3-1.42-2.54-2.45.49-2.84 1.65.25 2.29 1.42 2.54Zm8.65 1.82c1.19.25 2.47-.49 2.87-1.65s-.25-2.31-1.44-2.56-2.47.49-2.87 1.66.25 2.3 1.44 2.56Zm8.74 1.85c1.2.25 2.5-.49 2.9-1.66s-.25-2.32-1.46-2.57-2.5.49-2.9 1.66.25 2.32 1.45 2.57Zm8.84 1.86c1.21.26 2.53-.49 2.93-1.66s-.26-2.34-1.47-2.59-2.53.49-2.93 1.67.26 2.33 1.47 2.59Zm8.92 1.89c1.23.26 2.56-.49 2.96-1.67s-.26-2.35-1.49-2.61-2.55.49-2.96 1.67.26 2.34 1.48 2.6Zm9.03 1.9c1.24.26 2.58-.49 3-1.67s-.26-2.36-1.51-2.62-2.58.49-2.99 1.68.26 2.36 1.5 2.62Zm-72.36-6.36c1.14.25 2.37-.48 2.75-1.61s-.24-2.26-1.38-2.5-2.36.48-2.74 1.62.23 2.25 1.37 2.5Zm8.36 1.81c1.15.25 2.39-.48 2.77-1.62s-.24-2.27-1.39-2.52-2.39.48-2.77 1.62.24 2.27 1.38 2.52Zm8.44 1.83c1.16.25 2.42-.48 2.8-1.63s-.24-2.28-1.4-2.53-2.41.48-2.8 1.63.24 2.28 1.4 2.53Zm8.53 1.85c1.17.25 2.44-.48 2.83-1.63s-.25-2.3-1.42-2.55-2.44.48-2.83 1.63.25 2.29 1.42 2.55Zm8.62 1.86c1.18.26 2.47-.48 2.86-1.64s-.25-2.31-1.43-2.56-2.47.48-2.86 1.64.25 2.3 1.43 2.56Zm8.71 1.89c1.2.26 2.49-.48 2.89-1.64s-.25-2.32-1.45-2.58-2.49.48-2.89 1.64.25 2.32 1.45 2.58Zm8.8 1.9c1.21.26 2.52-.48 2.92-1.65s-.26-2.33-1.47-2.59-2.52.48-2.92 1.65.25 2.33 1.46 2.59Zm8.9 1.93c1.23.27 2.55-.47 2.96-1.65s-.26-2.35-1.48-2.61-2.54.48-2.95 1.66.26 2.34 1.48 2.61Zm8.99 1.95c1.24.27 2.58-.47 2.99-1.66s-.26-2.36-1.5-2.62-2.57.48-2.98 1.66.26 2.35 1.49 2.62Zm-72.11-6.72c1.13.25 2.36-.46 2.74-1.6s-.24-2.26-1.37-2.51-2.36.47-2.73 1.6.23 2.25 1.37 2.5Zm8.33 1.85c1.14.25 2.38-.46 2.77-1.6s-.24-2.27-1.39-2.52-2.38.47-2.76 1.61.24 2.26 1.38 2.52Zm8.41 1.87c1.16.26 2.41-.46 2.79-1.61s-.24-2.28-1.4-2.54-2.41.47-2.79 1.61.24 2.28 1.4 2.53Zm8.5 1.89c1.17.26 2.43-.46 2.82-1.61s-.25-2.29-1.42-2.55-2.43.47-2.82 1.62.24 2.29 1.41 2.55Zm8.59 1.9c1.18.26 2.46-.46 2.85-1.62s-.25-2.31-1.43-2.57-2.46.47-2.85 1.62.25 2.3 1.43 2.56Zm8.69 1.93c1.19.26 2.49-.46 2.88-1.62s-.25-2.32-1.45-2.58-2.48.47-2.88 1.63.25 2.31 1.44 2.58Zm8.77 1.95c1.21.27 2.51-.46 2.91-1.63s-.25-2.33-1.46-2.6-2.51.47-2.91 1.63.25 2.33 1.46 2.59Zm8.87 1.97c1.22.27 2.54-.46 2.95-1.64s-.26-2.34-1.48-2.61-2.53.47-2.94 1.64.26 2.34 1.47 2.61Zm8.96 1.99c1.23.27 2.57-.46 2.98-1.64s-.26-2.36-1.5-2.63-2.56.47-2.97 1.64.26 2.35 1.49 2.63Zm-71.88-7.08c1.13.26 2.35-.45 2.73-1.58s-.24-2.26-1.37-2.51-2.35.46-2.72 1.58.23 2.25 1.36 2.51Zm8.3 1.89c1.14.26 2.38-.45 2.76-1.59s-.24-2.27-1.38-2.52-2.37.46-2.75 1.59.24 2.26 1.38 2.52Zm8.39 1.91c1.15.26 2.4-.45 2.79-1.59s-.24-2.28-1.4-2.54-2.4.45-2.78 1.59.24 2.28 1.39 2.54Zm8.47 1.93c1.16.27 2.43-.45 2.81-1.6s-.24-2.29-1.41-2.55-2.42.45-2.81 1.6.24 2.29 1.41 2.55Zm8.57 1.95c1.18.27 2.45-.45 2.84-1.6s-.25-2.3-1.42-2.57-2.45.45-2.84 1.6.24 2.3 1.42 2.57Zm8.65 1.97c1.19.27 2.48-.45 2.87-1.61s-.25-2.32-1.44-2.58-2.47.45-2.87 1.61.25 2.31 1.44 2.58Zm8.75 1.99c1.2.27 2.5-.45 2.9-1.61s-.25-2.33-1.46-2.6-2.5.45-2.9 1.61.25 2.33 1.45 2.6Zm8.83 2.01c1.22.28 2.53-.45 2.94-1.62s-.26-2.34-1.47-2.62-2.53.45-2.93 1.62.26 2.34 1.47 2.61Zm-46.07-1.52c1.15.27 2.39-.44 2.78-1.58s-.24-2.28-1.39-2.54-2.39.44-2.77 1.58.24 2.27 1.39 2.54Zm8.44 1.97c1.16.27 2.42-.44 2.81-1.58s-.24-2.29-1.41-2.56-2.42.44-2.8 1.58.24 2.29 1.4 2.56Zm8.54 1.99c1.17.27 2.44-.44 2.83-1.59s-.25-2.3-1.42-2.57-2.44.44-2.83 1.59.24 2.3 1.42 2.57Zm8.62 2.01c1.19.28 2.47-.44 2.86-1.59s-.25-2.32-1.44-2.59-2.47.44-2.86 1.59.25 2.31 1.43 2.59Zm8.72 2.03c1.2.28 2.49-.44 2.89-1.6s-.25-2.33-1.45-2.6-2.49.44-2.89 1.6.25 2.32 1.45 2.6Zm8.81 2.05c1.21.28 2.52-.43 2.93-1.6s-.25-2.34-1.47-2.62-2.52.44-2.92 1.6.25 2.34 1.46 2.62Zm-37.51.26c1.16.28 2.41-.42 2.8-1.56s-.24-2.29-1.4-2.56-2.41.43-2.79 1.57.24 2.28 1.4 2.56Zm8.51 2.03c1.17.28 2.43-.42 2.82-1.57s-.24-2.3-1.42-2.58-2.43.43-2.82 1.57.24 2.3 1.41 2.58Zm8.6 2.05c1.18.28 2.46-.42 2.85-1.57s-.25-2.31-1.43-2.59-2.46.43-2.85 1.58.25 2.31 1.43 2.59Zm8.69 2.08c1.19.28 2.49-.42 2.88-1.58s-.25-2.33-1.45-2.61-2.48.43-2.88 1.58.25 2.32 1.44 2.61Zm8.77 2.09c1.21.29 2.51-.42 2.92-1.58s-.25-2.34-1.46-2.62-2.51.43-2.91 1.59.25 2.33 1.46 2.62Zm8.88 2.12c1.22.29 2.54-.42 2.95-1.59s-.26-2.35-1.48-2.64-2.54.42-2.94 1.59.26 2.35 1.47 2.64Zm-2.96 8.52c1.22.3 2.53-.41 2.94-1.57s-.26-2.35-1.48-2.64-2.53.41-2.93 1.57.25 2.34 1.47 2.64Zm-2.94 8.5c1.21.3 2.52-.39 2.93-1.55s-.26-2.35-1.47-2.65-2.52.4-2.92 1.56.25 2.34 1.46 2.64Zm8.91 2.22c1.23.31 2.55-.39 2.96-1.56.41-1.17-.26-2.36-1.49-2.66s-2.55.4-2.95 1.56.26 2.36 1.48 2.66Zm-11.85 6.25c1.21.31 2.52-.38 2.92-1.54s-.25-2.35-1.47-2.65-2.51.38-2.91 1.54.25 2.34 1.46 2.65Zm8.88 2.26c1.22.31 2.54-.38 2.95-1.54s-.26-2.36-1.48-2.67-2.54.38-2.94 1.54.26 2.35 1.48 2.66Zm-2.96 8.49c1.22.32 2.53-.36 2.94-1.52s-.26-2.36-1.48-2.67-2.53.37-2.93 1.53.26 2.35 1.47 2.67Zm8.95 2.33c1.23.32 2.56-.36 2.97-1.53s-.26-2.37-1.49-2.69-2.56.37-2.96 1.53.26 2.36 1.49 2.68Zm9.04 2.36c1.24.32 2.59-.36 3-1.53s-.26-2.38-1.51-2.7-2.58.37-2.99 1.54.26 2.38 1.5 2.7Zm-20.94 3.76c1.21.32 2.53-.35 2.93-1.51s-.26-2.35-1.47-2.68-2.52.36-2.92 1.51.26 2.35 1.47 2.67Zm8.92 2.38c1.23.33 2.55-.35 2.96-1.51s-.26-2.37-1.49-2.69-2.55.36-2.95 1.51.26 2.36 1.48 2.69Zm9.01 2.4c1.24.33 2.58-.35 2.99-1.52s-.26-2.38-1.5-2.71-2.58.35-2.98 1.52.26 2.38 1.5 2.7Zm9.11 2.42c1.25.33 2.61-.35 3.02-1.52s-.26-2.39-1.52-2.72-2.6.35-3.02 1.52.26 2.39 1.51 2.72Zm9.2 2.46c1.27.34 2.63-.34 3.05-1.52s-.27-2.41-1.54-2.74-2.63.35-3.05 1.53.27 2.4 1.53 2.74Zm9.31 2.48c1.28.34 2.66-.34 3.09-1.53.42-1.19-.27-2.42-1.55-2.76s-2.66.35-3.08 1.53.27 2.42 1.55 2.76Zm9.41 2.5c1.3.35 2.69-.34 3.12-1.53s-.27-2.44-1.57-2.78-2.69.35-3.12 1.53.27 2.43 1.57 2.77Zm9.52 2.54c1.31.35 2.72-.34 3.16-1.54s-.28-2.45-1.59-2.79-2.72.34-3.15 1.54.28 2.44 1.58 2.79Zm-67.42-8.75c1.21.33 2.52-.34 2.92-1.49s-.26-2.35-1.47-2.68-2.51.34-2.91 1.49.25 2.35 1.46 2.68Zm8.89 2.42c1.22.33 2.54-.34 2.95-1.49s-.26-2.37-1.48-2.7-2.54.34-2.94 1.5.26 2.36 1.48 2.69Zm8.98 2.44c1.24.34 2.57-.33 2.98-1.5s-.26-2.38-1.5-2.71-2.57.34-2.98 1.5.26 2.37 1.49 2.71Zm9.08 2.47c1.25.34 2.6-.33 3.01-1.5.41-1.17-.26-2.39-1.51-2.73s-2.59.34-3.01 1.51.26 2.39 1.51 2.73Zm9.17 2.5c1.26.34 2.63-.33 3.04-1.51s-.26-2.41-1.53-2.75-2.62.34-3.04 1.51.27 2.4 1.53 2.74Zm9.28 2.52c1.28.35 2.65-.33 3.08-1.51s-.27-2.42-1.55-2.76-2.65.34-3.07 1.51.27 2.41 1.54 2.76Zm9.38 2.55c1.29.35 2.68-.33 3.11-1.51s-.27-2.43-1.57-2.78-2.68.33-3.11 1.52.27 2.43 1.56 2.78Zm9.48 2.58c1.31.35 2.71-.32 3.15-1.52s-.28-2.45-1.58-2.8-2.71.33-3.14 1.52.28 2.44 1.58 2.8Z"/></svg>